<svg xmlns="http://www.w3.org/2000/svg" xmlns:xlink="http://www.w3.org/1999/xlink" width="1712" height="1310.73"><g transform="translate(32 -32)"><path d="M0 0h1323.2v1870.4H0z" fill="#fff"/><path d="M104 52h472v300H104z" stroke="#000" stroke-width="2" fill="#fff"/><path d="M104 52h472v60H104z" stroke="#000" stroke-width="2" fill="#bfbfbf"/><path d="M296 76h268v24H296z" stroke="#000" stroke-width="2" fill="#fff"/><path d="M128 76l-12 12 12 12m-12-12h24M176 76l12 12-12 12m-12-12h24M236 88c-1.4-6.23-2.8-8.15-4.95-9.7-5.36-3.9-12.86-2.72-16.76 2.65-3.9 5.36-2.72 12.86 2.65 16.76 5.36 3.9 12.86 2.72 16.76-2.65" stroke="#000" stroke-width="6" fill="none"/><path d="M239.12 76v12h-12z" stroke="#000" stroke-width="1.5"/><path d="M260 88l12-12 12 12h-2.4v12h-6V88h-7.2v12h-6V88z" stroke="#000"/><use xlink:href="#a" transform="matrix(1,0,0,1,124,52) translate(197.725 15.6)"/><use xlink:href="#b" transform="matrix(1,0,0,1,302,76) translate(0 15.6)"/><path d="M174 160h332v36H174z" stroke="#000" stroke-width="2" fill="#fff"/><use xlink:href="#c" transform="matrix(1,0,0,1,184,163.6) translate(0 18.1)"/><use xlink:href="#d" transform="matrix(1,0,0,1,184,163.6) translate(39 18.1)"/><use xlink:href="#e" transform="matrix(1,0,0,1,184,163.6) translate(57.95 18.1)"/><use xlink:href="#f" transform="matrix(1,0,0,1,184,163.6) translate(97.9 18.1)"/><use xlink:href="#g" transform="matrix(1,0,0,1,184,163.6) translate(165.9 18.1)"/><path d="M174 212h332v36H174z" stroke="#000" stroke-width="2" fill="#fff"/><use xlink:href="#c" transform="matrix(1,0,0,1,184,215.6) translate(0 18.1)"/><use xlink:href="#d" transform="matrix(1,0,0,1,184,215.6) translate(39 18.1)"/><use xlink:href="#e" transform="matrix(1,0,0,1,184,215.6) translate(57.95 18.1)"/><use xlink:href="#h" transform="matrix(1,0,0,1,184,215.6) translate(97.9 18.1)"/><path d="M280 272c-6.63 0-12 5.37-12 12v16c0 6.63 5.37 12 12 12h136c6.63 0 12-5.37 12-12v-16c0-6.63-5.37-12-12-12z" stroke="#000" stroke-width="2" fill="#fff"/><use xlink:href="#i" transform="matrix(1,0,0,1,278,276) translate(42.025 19.6)"/><use xlink:href="#j" transform="matrix(1,0,0,1,278,276) translate(82.975 19.6)"/><path d="M756 296h636v356H756z" stroke="#000" stroke-width="2" fill="#fff"/><path d="M756 296h636v60H756z" stroke="#000" stroke-width="2" fill="#bfbfbf"/><path d="M948 320h432v24H948z" stroke="#000" stroke-width="2" fill="#fff"/><path d="M780 320l-12 12 12 12m-12-12h24M828 320l12 12-12 12m-12-12h24M888 332c-1.4-6.23-2.8-8.15-4.95-9.7-5.36-3.9-12.86-2.72-16.76 2.65-3.9 5.36-2.72 12.86 2.65 16.76 5.36 3.9 12.86 2.72 16.76-2.65" stroke="#000" stroke-width="6" fill="none"/><path d="M891.12 320v12h-12z" stroke="#000" stroke-width="1.5"/><path d="M912 332l12-12 12 12h-2.4v12h-6v-12h-7.2v12h-6v-12z" stroke="#000"/><use xlink:href="#k" transform="matrix(1,0,0,1,776,296) translate(254.05 15.6)"/><use xlink:href="#l" transform="matrix(1,0,0,1,954,320) translate(0 15.6)"/><path d="M1180 360h202v40h-202z" fill="none"/><use xlink:href="#m" transform="matrix(1,0,0,1,1185,365) translate(2.125 18.6)"/><use xlink:href="#n" transform="matrix(1,0,0,1,1185,365) translate(46.525 18.6)"/><use xlink:href="#o" transform="matrix(1,0,0,1,1185,365) translate(101.475 18.6)"/><use xlink:href="#p" transform="matrix(1,0,0,1,1185,365) translate(134.425 18.6)"/><path d="M576 202l222.08-1.1 85.04 3.3L929.4 208l29.34 3.65 20.33 3.4 14.95 3.15 11.47 2.93 9.07 2.74 7.4 2.56 6.12 2.42 5.17 2.3 4.43 2.2 3.85 2.1 3.37 2.04 2.98 1.97 2.66 1.94 2.4 1.9 2.16 1.86 1.97 1.84 1.8 1.84 1.66 1.85 1.53 1.85 1.4 1.87 1.33 1.9 1.23 1.93 1.14 1.98 1.07 2.05 1 2.12.94 2.2.87 2.34.8 2.46.74 2.64.68 2.84.6 3.1.5 3.46.42 3.88.28 4.47.1 3.6" stroke="#c92d39" stroke-width="4" fill="none"/><path d="M576.02 204H576v-4z" fill="#c92d39"/><path d="M1075.18 295.34l-5.8-13.84 9.24-.76z" stroke="#c92d39" stroke-width="4" fill="#c92d39"/><use xlink:href="#q" transform="matrix(1,0,0,1,732.3796868182699,176.0725183717654) translate(0 14.4)"/><use xlink:href="#r" transform="matrix(1,0,0,1,732.3796868182699,176.0725183717654) translate(88.95 14.4)"/><path d="M184 353l3.5 11.98 3.76 11.16 4 10.4 4.2 9.7 4.4 9.03 4.5 8.4 4.63 7.8 4.72 7.27 4.8 6.75 4.86 6.24 4.9 5.8 4.96 5.37 4.97 4.97 5 4.57 5 4.22 5 3.87 5 3.55 5 3.25 5 2.95 5 2.67 5 2.4 5 2.16 5 1.92 4.98 1.67 4.98 1.44 5 1.22 4.98 1 5 .78 5.02.58 5.03.36 5.03.16 5.07-.06 5.1-.28 5.12-.5 5.17-.7 5.2-.94 5.23-1.18 5.3-1.43 5.35-1.68 5.4-1.96 5.48-2.23 5.54-2.54 5.62-2.87 5.7-3.22 5.76-3.6 5.86-3.98 5.96-4.44 6.04-4.9 6.13-5.43 6.23-6 6.33-6.6 6.42-7.3 6.5-8.06 6.58-8.9 6.66-9.8 6.7-10.86 6.74-12 6.74-13.3 6.73-14.73 1.77-4.15M184 353l-.86-2.87" stroke="#c92d39" stroke-width="4" fill="none"/><path d="M498.67 353l-1.6 14.92-8.45-3.78z" stroke="#c92d39" stroke-width="4" fill="#c92d39"/><path fill="#fff" d="M227.45 485.75H448.3v21.6H227.46z"/><use xlink:href="#s" transform="matrix(1,0,0,1,227.44663704666232,485.74615467498313) translate(0 14.4)"/><use xlink:href="#r" transform="matrix(1,0,0,1,227.44663704666232,485.74615467498313) translate(108.95 14.4)"/><path d="M400 660h240v74.8H400z" fill="none"/><use xlink:href="#t" transform="matrix(1,0,0,1,405,665) translate(46.575 14.500000000000002)"/><use xlink:href="#u" transform="matrix(1,0,0,1,405,665) translate(124.525 14.500000000000002)"/><use xlink:href="#v" transform="matrix(1,0,0,1,405,665) translate(14.5 36.1)"/><use xlink:href="#w" transform="matrix(1,0,0,1,405,665) translate(121.65 36.1)"/><use xlink:href="#x" transform="matrix(1,0,0,1,405,665) translate(139.60000000000002 36.1)"/><use xlink:href="#y" transform="matrix(1,0,0,1,405,665) translate(13.149999999999991 57.7)"/><use xlink:href="#z" transform="matrix(1,0,0,1,405,665) translate(54.099999999999994 57.7)"/><use xlink:href="#A" transform="matrix(1,0,0,1,405,665) translate(68.05 57.7)"/><use xlink:href="#B" transform="matrix(1,0,0,1,405,665) translate(184.95 57.7)"/><path d="M609.33 660l-.4-79.98-.5-8-.46-4.48-.45-3.1-.46-2.4-.48-2.04-.5-1.83-.57-1.73-.64-1.74-.8-1.9-1.13-2.4-2.37-4.5-10.6-19.77-6.7-14.3-9-21.5-13.62-36.84-23.38-72.6-47.85-173.63L470 130" stroke="#0c7cba" stroke-width="2" fill="none"/><path d="M610.33 660h-2 2z" fill="#0c7cba"/><path d="M470 130l7.97 12.7-9 2.27z" stroke="#0c7cba" stroke-width="2" fill="#0c7cba"/><path d="M880 460h140v60H880z" fill="none"/><use xlink:href="#C" transform="matrix(1,0,0,1,885,465) translate(27.6 28.6)"/><path d="M1164 460h100v60h-100z" fill="none"/><use xlink:href="#D" transform="matrix(1,0,0,1,1169,465) translate(14.549999999999997 28.6)"/><path d="M1016 580c-6.63 0-12 5.37-12 12v16c0 6.63 5.37 12 12 12h136c6.63 0 12-5.37 12-12v-16c0-6.63-5.37-12-12-12z" stroke="#000" stroke-width="2" fill="#fff"/><use xlink:href="#E" transform="matrix(1,0,0,1,1014,584) translate(38 19.6)"/><use xlink:href="#F" transform="matrix(1,0,0,1,1014,584) translate(73 19.6)"/><path d="M1004 600l-19.3-.4-16.7-1.04-14.75-1.54-13.2-1.95-12.03-2.3-11.07-2.58-10.32-2.9-9.72-3.15-9.25-3.44-8.9-3.74-8.68-4.07-8.52-4.47-8.48-4.9-8.55-5.42-8.74-6.07-9.1-6.9-9.68-8.03-10.62-9.57-12.2-11.98-15.25-16.27-23.63-27.5-121.02-146.55-39.47-42.04-17.8-17.87" stroke="#c92d39" stroke-width="4" fill="none"/><path d="M1004 602h-.05l.05-2.3z" fill="#c92d39"/><path d="M577 265.33l13.36 6.83-6.56 6.55z" stroke="#c92d39" stroke-width="4" fill="#c92d39"/><path d="M102 818h636v356H102z" stroke="#000" stroke-width="2" fill="#fff"/><path d="M102 818h636v60H102z" stroke="#000" stroke-width="2" fill="#bfbfbf"/><path d="M294 842h432v24H294z" stroke="#000" stroke-width="2" fill="#fff"/><path d="M126 842l-12 12 12 12m-12-12h24M174 842l12 12-12 12m-12-12h24M234 854c-1.4-6.23-2.8-8.15-4.95-9.7-5.36-3.9-12.86-2.72-16.76 2.65-3.9 5.36-2.72 12.86 2.65 16.76 5.36 3.9 12.86 2.72 16.76-2.65" stroke="#000" stroke-width="6" fill="none"/><path d="M237.12 842v12h-12z" stroke="#000" stroke-width="1.5"/><path d="M258 854l12-12 12 12h-2.4v12h-6v-12h-7.2v12h-6v-12z" stroke="#000"/><use xlink:href="#G" transform="matrix(1,0,0,1,122,818) translate(231.125 15.6)"/><use xlink:href="#H" transform="matrix(1,0,0,1,122,818) translate(310.925 15.6)"/><use xlink:href="#I" transform="matrix(1,0,0,1,300,842) translate(0 15.6)"/><path d="M950 520l-126.2 60.4-42.26 22.6-23.35 13.82-15.26 9.9-10.9 7.76-8.23 6.4-6.47 5.48-5.26 4.85-4.37 4.38-3.7 4.03-3.17 3.78-2.76 3.57-2.44 3.43-2.15 3.33-1.94 3.3-1.74 3.24-1.57 3.27-1.43 3.33-1.3 3.4-1.2 3.56-1.07 3.74-1 4.02-.87 4.4-.77 4.96-.67 5.78-.5 7.12-.28 9.75.3 18.72 1.88 64.7" stroke="#c92d39" stroke-width="4" fill="none"/><path d="M953.56 520.5l-2.7 1.3-.87-1.8h3.3z" fill="#c92d39"/><path d="M681.33 817l-5.05-14.12 9.27-.28z" stroke="#c92d39" stroke-width="4" fill="#c92d39"/><path d="M300 960h240v60H300z" fill="none"/><use xlink:href="#J" transform="matrix(1,0,0,1,305,965) translate(32.150000000000006 28.6)"/><use xlink:href="#K" transform="matrix(1,0,0,1,305,965) translate(99.10000000000001 28.6)"/><use xlink:href="#L" transform="matrix(1,0,0,1,305,965) translate(123.05000000000001 28.6)"/><path d="M766 410h616v40H766z" fill="none"/><use xlink:href="#M" transform="matrix(1,0,0,1,771,415) translate(131.525 19.1)"/><use xlink:href="#N" transform="matrix(1,0,0,1,771,415) translate(172.82500000000002 19.1)"/><use xlink:href="#O" transform="matrix(1,0,0,1,771,415) translate(233.72500000000002 19.1)"/><use xlink:href="#P" transform="matrix(1,0,0,1,771,415) translate(301.675 19.1)"/><use xlink:href="#Q" transform="matrix(1,0,0,1,771,415) translate(324.625 19.1)"/><use xlink:href="#R" transform="matrix(1,0,0,1,771,415) translate(396.025 19.1)"/><path d="M526 880h202v40H526z" fill="none"/><use xlink:href="#m" transform="matrix(1,0,0,1,531,885) translate(2.125 18.6)"/><use xlink:href="#n" transform="matrix(1,0,0,1,531,885) translate(46.525 18.6)"/><use xlink:href="#o" transform="matrix(1,0,0,1,531,885) translate(101.475 18.6)"/><use xlink:href="#p" transform="matrix(1,0,0,1,531,885) translate(134.425 18.6)"/><path d="M112 930h616v40H112z" fill="none"/><use xlink:href="#M" transform="matrix(1,0,0,1,117.00000000000006,935) translate(131.525 19.1)"/><use xlink:href="#N" transform="matrix(1,0,0,1,117.00000000000006,935) translate(172.82500000000002 19.1)"/><use xlink:href="#O" transform="matrix(1,0,0,1,117.00000000000006,935) translate(233.72500000000002 19.1)"/><use xlink:href="#P" transform="matrix(1,0,0,1,117.00000000000006,935) translate(301.675 19.1)"/><use xlink:href="#Q" transform="matrix(1,0,0,1,117.00000000000006,935) translate(324.625 19.1)"/><use xlink:href="#R" transform="matrix(1,0,0,1,117.00000000000006,935) translate(396.025 19.1)"/><path d="M300 1008h248v40H300z" stroke="#000" stroke-width="2" fill="#fff"/><use xlink:href="#S" transform="matrix(1,0,0,1,310,1012) translate(0 20.1)"/><use xlink:href="#T" transform="matrix(1,0,0,1,310,1012) translate(45.95 20.1)"/><use xlink:href="#U" transform="matrix(1,0,0,1,310,1012) translate(110.9 20.1)"/><use xlink:href="#V" transform="matrix(1,0,0,1,310,1012) translate(130.9 20.1)"/><path d="M356 1080c-6.63 0-12 5.37-12 12v16c0 6.63 5.37 12 12 12h136c6.63 0 12-5.37 12-12v-16c0-6.63-5.37-12-12-12z" stroke="#000" stroke-width="2" fill="#fff"/><use xlink:href="#W" transform="matrix(1,0,0,1,354,1084) translate(32.6 19.6)"/><path d="M882.67 818.67h636v356h-636z" stroke="#000" stroke-width="2" fill="#fff"/><path d="M882.67 818.67h636v60h-636z" stroke="#000" stroke-width="2" fill="#bfbfbf"/><path d="M1074.67 842.67h432v24h-432z" stroke="#000" stroke-width="2" fill="#fff"/><path d="M906.67 842.67l-12 12 12 12m-12-12h24M954.67 842.67l12 12-12 12m-12-12h24M1014.67 854.67c-1.4-6.23-2.8-8.15-4.95-9.7-5.36-3.9-12.87-2.72-16.76 2.64-3.9 5.37-2.7 12.88 2.65 16.77 5.37 3.9 12.88 2.7 16.77-2.65" stroke="#000" stroke-width="6" fill="none"/><path d="M1017.8 842.67v12h-12z" stroke="#000" stroke-width="1.5"/><path d="M1038.67 854.67l12-12 12 12h-2.4v12h-6v-12h-7.2v12h-6v-12z" stroke="#000"/><use xlink:href="#X" transform="matrix(1,0,0,1,902.6666666666666,818.6666666666666) translate(238.075 15.6)"/><use xlink:href="#H" transform="matrix(1,0,0,1,902.6666666666666,818.6666666666666) translate(303.975 15.6)"/><g><use xlink:href="#Y" transform="matrix(1,0,0,1,1080.6666666666665,842.6666666666666) translate(0 15.6)"/></g><path d="M1080.67 960.67h240v60h-240z" fill="none"/><g><use xlink:href="#J" transform="matrix(1,0,0,1,1085.6666666666665,965.6666666666666) translate(41.07499999999999 28.6)"/><use xlink:href="#Z" transform="matrix(1,0,0,1,1085.6666666666665,965.6666666666666) translate(108.02499999999999 28.6)"/><use xlink:href="#aa" transform="matrix(1,0,0,1,1085.6666666666665,965.6666666666666) translate(128.02499999999998 28.6)"/></g><path d="M1306.67 880.67h202v40h-202z" fill="none"/><g><use xlink:href="#m" transform="matrix(1,0,0,1,1311.6666666666665,885.6666666666666) translate(2.125 18.6)"/><use xlink:href="#n" transform="matrix(1,0,0,1,1311.6666666666665,885.6666666666666) translate(46.525 18.6)"/><use xlink:href="#o" transform="matrix(1,0,0,1,1311.6666666666665,885.6666666666666) translate(101.475 18.6)"/><use xlink:href="#p" transform="matrix(1,0,0,1,1311.6666666666665,885.6666666666666) translate(134.425 18.6)"/></g><path d="M892.67 930.67h616v40h-616z" fill="none"/><g><use xlink:href="#M" transform="matrix(1,0,0,1,897.6666666666667,935.6666666666666) translate(131.525 19.1)"/><use xlink:href="#N" transform="matrix(1,0,0,1,897.6666666666667,935.6666666666666) translate(172.82500000000002 19.1)"/><use xlink:href="#O" transform="matrix(1,0,0,1,897.6666666666667,935.6666666666666) translate(233.72500000000002 19.1)"/><use xlink:href="#P" transform="matrix(1,0,0,1,897.6666666666667,935.6666666666666) translate(301.675 19.1)"/><use xlink:href="#Q" transform="matrix(1,0,0,1,897.6666666666667,935.6666666666666) translate(324.625 19.1)"/><use xlink:href="#R" transform="matrix(1,0,0,1,897.6666666666667,935.6666666666666) translate(396.025 19.1)"/></g><path d="M1080.67 1008.67h248v40h-248z" stroke="#000" stroke-width="2" fill="#fff"/><g><use xlink:href="#S" transform="matrix(1,0,0,1,1090.6666666666665,1012.6666666666665) translate(0 20.1)"/><use xlink:href="#T" transform="matrix(1,0,0,1,1090.6666666666665,1012.6666666666665) translate(45.95 20.1)"/><use xlink:href="#U" transform="matrix(1,0,0,1,1090.6666666666665,1012.6666666666665) translate(110.9 20.1)"/><use xlink:href="#ab" transform="matrix(1,0,0,1,1090.6666666666665,1012.6666666666665) translate(130.9 20.1)"/></g><path d="M1136.67 1080.67c-6.63 0-12 5.37-12 12v16c0 6.62 5.37 12 12 12h136c6.62 0 12-5.38 12-12v-16c0-6.63-5.38-12-12-12z" stroke="#000" stroke-width="2" fill="#fff"/><g><use xlink:href="#ac" transform="matrix(1,0,0,1,1134.6666666666665,1084.6666666666665) translate(39.55 19.6)"/></g><path d="M504 1100l12.23-.25 11.66-.74 11.17-1.16 10.73-1.58 10.35-1.98 10-2.35 9.73-2.7 9.44-3.08 9.22-3.42 9-3.8 8.85-4.15 8.68-4.55 8.57-4.94 8.45-5.38 8.37-5.8 8.3-6.3 8.23-6.83 8.2-7.4 8.16-8 8.14-8.66 8.13-9.4 8.1-10.25 8.1-11.15 8.06-12.14 8.02-13.26 7.97-14.5 7.87-15.9 7.74-17.4 7.56-19.08 7.28-20.92 6.9-22.9 6.4-24.98 5.77-27.13 4.96-29.27 3.94-31.25 2.76-32.93 1.43-34.16.17-17.3" stroke="#c92d39" stroke-width="4" fill="none"/><path d="M504.06 1102H504v-2.23z" fill="#c92d39"/><path d="M802.67 653l4.48 14.3-9.27-.08z" stroke="#c92d39" stroke-width="4" fill="#c92d39"/><path fill="#fff" d="M562.86 1043.83h173.7v21.6h-173.7z"/><g><use xlink:href="#q" transform="matrix(1,0,0,1,562.8645954968171,1043.830412249239) translate(0 14.4)"/><use xlink:href="#ad" transform="matrix(1,0,0,1,562.8645954968171,1043.830412249239) translate(88.95 14.4)"/></g><path d="M1124.66 1100.67l-11.85-.25-11.27-.7-10.8-1.14-10.33-1.53-9.95-1.9-9.6-2.25-9.32-2.6-9.04-2.93-8.8-3.28-8.62-3.63-8.43-3.96-8.28-4.32-8.15-4.7-8.05-5.12-7.96-5.53-7.87-6-7.84-6.47-7.8-7.02-7.77-7.6-7.75-8.26-7.74-8.97-7.74-9.76-7.73-10.65-7.73-11.65-7.72-12.75-7.68-14-7.63-15.37-7.54-16.96-7.4-18.7-7.18-20.66-6.88-22.8-6.45-25.14-5.86-27.65-5.1-30.2-4.14-32.72-2.93-34.98-1.53-36.74L836 653" stroke="#c92d39" stroke-width="4" fill="none"/><path d="M1124.67 1102.67h-.07l.07-2.22z" fill="#c92d39"/><path d="M836 653l4.78 14.22-9.27.1z" stroke="#c92d39" stroke-width="4" fill="#c92d39"/><path fill="#fff" d="M891.72 1030.57h146.9v21.6h-146.9z"/><g><use xlink:href="#q" transform="matrix(1,0,0,1,891.719284091543,1030.568407502607) translate(0 14.4)"/><use xlink:href="#ae" transform="matrix(1,0,0,1,891.719284091543,1030.568407502607) translate(88.95 14.4)"/></g><path d="M326 1121h200v60H326z" fill="none"/><g><use xlink:href="#af" transform="matrix(1,0,0,1,331,1126) translate(8.074999999999989 28.6)"/><use xlink:href="#ag" transform="matrix(1,0,0,1,331,1126) translate(29.024999999999988 28.6)"/><use xlink:href="#ah" transform="matrix(1,0,0,1,331,1126) translate(74.02499999999999 28.6)"/><use xlink:href="#ai" transform="matrix(1,0,0,1,331,1126) translate(94.02499999999999 28.6)"/></g><path d="M1107 1120h200v60h-200z" fill="none"/><g><use xlink:href="#af" transform="matrix(1,0,0,1,1112,1125) translate(8.074999999999989 28.6)"/><use xlink:href="#ag" transform="matrix(1,0,0,1,1112,1125) translate(29.024999999999988 28.6)"/><use xlink:href="#ah" transform="matrix(1,0,0,1,1112,1125) translate(74.02499999999999 28.6)"/><use xlink:href="#ai" transform="matrix(1,0,0,1,1112,1125) translate(94.02499999999999 28.6)"/></g><path d="M177.34 1175l14.27 15.96 13.78 14.14 13.3 12.58 12.9 11.2 12.5 9.97 12.16 8.9 11.85 7.92 11.57 7.06L291 1269l11.1 5.56 10.9 4.9 10.76 4.3 10.6 3.72 10.46 3.2 10.36 2.68 10.28 2.22 10.2 1.76 10.15 1.3 10.12.9 10.08.44 10.08.03 10.07-.38 10.08-.82 10.1-1.25 10.1-1.68 10.14-2.12 10.16-2.58 10.2-3.04 10.2-3.52 10.2-4 10.2-4.5 10.17-5.02 10.13-5.53 10.05-6.05 9.93-6.56 9.8-7.06 9.6-7.56 9.33-8.02 9.06-8.46 8.7-8.84 8.33-9.2 7.9-9.47 7.4-9.7 6.74-9.63M177.34 1175l-2-2.23" stroke="#c92d39" stroke-width="4" fill="none"/><path d="M634.67 1175l-4.52 14.3-7.54-5.38z" stroke="#c92d39" stroke-width="4" fill="#c92d39"/><path fill="#fff" d="M310.73 1289.18h193.7v21.6h-193.7z"/><g><use xlink:href="#s" transform="matrix(1,0,0,1,310.72784631774823,1289.1845968376292) translate(0 14.4)"/><use xlink:href="#ad" transform="matrix(1,0,0,1,310.72784631774823,1289.1845968376292) translate(108.95 14.4)"/></g><path d="M-12 1247.93h240v74.8H-12z" fill="none"/><g><use xlink:href="#aj" transform="matrix(1,0,0,1,-7,1252.9333333333334) translate(15.649999999999991 25.299999999999997)"/><use xlink:href="#ak" transform="matrix(1,0,0,1,-7,1252.9333333333334) translate(60.49999999999999 25.299999999999997)"/><use xlink:href="#x" transform="matrix(1,0,0,1,-7,1252.9333333333334) translate(138.45 25.299999999999997)"/><use xlink:href="#y" transform="matrix(1,0,0,1,-7,1252.9333333333334) translate(26.72499999999998 46.9)"/><use xlink:href="#z" transform="matrix(1,0,0,1,-7,1252.9333333333334) translate(67.67499999999998 46.9)"/><use xlink:href="#al" transform="matrix(1,0,0,1,-7,1252.9333333333334) translate(81.62499999999999 46.9)"/><use xlink:href="#B" transform="matrix(1,0,0,1,-7,1252.9333333333334) translate(171.375 46.9)"/></g><path d="M84.13 1247.93l-1.55-9.92-1.23-10.82-.83-11.73-.37-12.6.17-13.38.76-14.07 1.4-14.58 2.1-14.93 2.73-15.07 3.4-15 3.98-14.78 4.54-14.38 5-13.86 5.45-13.24 5.8-12.58 6.07-11.88 6.32-11.17 6.5-10.47 6.68-9.78 6.8-9.12 6.9-8.5 7-7.9 7.06-7.34 7.14-6.82 7.2-6.32 7.27-5.86 7.34-5.43 7.4-5.03 7.5-4.62 7.6-4.26 7.68-3.9 7.8-3.57 7.96-3.22 8.1-2.9 8.27-2.57 8.47-2.25 8.7-1.92 8.94-1.6L290 910" stroke="#0c7cba" stroke-width="2" fill="none"/><path d="M85.14 1247.93H84.1l1.02-.14z" fill="#0c7cba"/><path d="M290 910l-13.25 7.04-1.6-9.14z" stroke="#0c7cba" stroke-width="2" fill="#0c7cba"/><path d="M1420 1220h240v74.8h-240z" fill="none"/><g><use xlink:href="#aj" transform="matrix(1,0,0,1,1425,1225) translate(15.649999999999991 25.299999999999997)"/><use xlink:href="#ak" transform="matrix(1,0,0,1,1425,1225) translate(60.49999999999999 25.299999999999997)"/><use xlink:href="#x" transform="matrix(1,0,0,1,1425,1225) translate(138.45 25.299999999999997)"/><use xlink:href="#y" transform="matrix(1,0,0,1,1425,1225) translate(40.125 46.9)"/><use xlink:href="#z" transform="matrix(1,0,0,1,1425,1225) translate(81.075 46.9)"/><use xlink:href="#am" transform="matrix(1,0,0,1,1425,1225) translate(95.025 46.9)"/><use xlink:href="#B" transform="matrix(1,0,0,1,1425,1225) translate(157.97500000000002 46.9)"/></g><path d="M1540 1220l-.7-35.4-1.63-26.34-2.2-21.1-2.6-17.7-2.9-15.22-3.14-13.38-3.33-11.94-3.5-10.8-3.67-9.86-3.82-9.1-3.96-8.44-4.13-7.9-4.28-7.43-4.46-7.04-4.65-6.7-4.84-6.38-5.07-6.13-5.33-5.9-5.58-5.7-5.9-5.54-6.24-5.38-6.63-5.24-7.06-5.14-7.57-5.02-8.14-4.93-8.8-4.85-9.58-4.75-10.48-4.66-11.54-4.56-12.8-4.46-14.3-4.3-16.14-4.15-18.38-3.9-21.17-3.56-24.7-3.1-29.23-2.44-35.2-1.45-6.34-.1" stroke="#0c7cba" stroke-width="2" fill="none"/><path d="M1541 1220h-1.28l1.28-.03z" fill="#0c7cba"/><path d="M1210 910l14.4-4.2-.3 9.28z" stroke="#0c7cba" stroke-width="2" fill="#0c7cba"/><defs><path d="M205 0l-28-72H64L36 0H1l101-248h38L239 0h-34zm-38-99l-47-123c-12 45-31 82-46 123h93" id="an"/><path d="M127-220V0H93v-220H8v-28h204v28h-85" id="ao"/><path d="M240 0l2-218c-23 76-54 145-80 218h-23L58-218 59 0H30v-248h44l77 211c21-75 51-140 76-211h43V0h-30" id="ap"/><g id="a"><use transform="matrix(0.05,0,0,0.05,0,0)" xlink:href="#an"/><use transform="matrix(0.05,0,0,0.05,10.65,0)" xlink:href="#ao"/><use transform="matrix(0.05,0,0,0.05,21.6,0)" xlink:href="#ap"/></g><path d="M106-169C34-169 62-67 57 0H25v-261h32l-1 103c12-21 28-36 61-36 89 0 53 116 60 194h-32v-121c2-32-8-49-39-48" id="aq"/><path d="M59-47c-2 24 18 29 38 22v24C64 9 27 4 27-40v-127H5v-23h24l9-43h21v43h35v23H59v120" id="ar"/><path d="M115-194c55 1 70 41 70 98S169 2 115 4C84 4 66-9 55-30l1 105H24l-1-265h31l2 30c10-21 28-34 59-34zm-8 174c40 0 45-34 45-75s-6-73-45-74c-42 0-51 32-51 76 0 43 10 73 51 73" id="as"/><path d="M33-154v-36h34v36H33zM33 0v-36h34V0H33" id="at"/><path d="M0 4l72-265h28L28 4H0" id="au"/><path d="M141-36C126-15 110 5 73 4 37 3 15-17 15-53c-1-64 63-63 125-63 3-35-9-54-41-54-24 1-41 7-42 31l-33-3c5-37 33-52 76-52 45 0 72 20 72 64v82c-1 20 7 32 28 27v20c-31 9-61-2-59-35zM48-53c0 20 12 33 32 33 41-3 63-29 60-74-43 2-92-5-92 41" id="av"/><path d="M210-169c-67 3-38 105-44 169h-31v-121c0-29-5-50-35-48C34-165 62-65 56 0H25l-1-190h30c1 10-1 24 2 32 10-44 99-50 107 0 11-21 27-35 58-36 85-2 47 119 55 194h-31v-121c0-29-5-49-35-48" id="aw"/><path d="M33 0v-38h34V0H33" id="ax"/><path d="M101-234c-31-9-42 10-38 44h38v23H63V0H32v-167H5v-23h27c-7-52 17-82 69-68v24" id="ay"/><path d="M100-194c62-1 85 37 85 99 1 63-27 99-86 99S16-35 15-95c0-66 28-99 85-99zM99-20c44 1 53-31 53-75 0-43-8-75-51-75s-53 32-53 75 10 74 51 75" id="az"/><path d="M115-194c53 0 69 39 70 98 0 66-23 100-70 100C84 3 66-7 56-30L54 0H23l1-261h32v101c10-23 28-34 59-34zm-8 174c40 0 45-34 45-75 0-40-5-75-45-74-42 0-51 32-51 76 0 43 10 73 51 73" id="aA"/><path d="M114-163C36-179 61-72 57 0H25l-1-190h30c1 12-1 29 2 39 6-27 23-49 58-41v29" id="aB"/><g id="b"><use transform="matrix(0.05,0,0,0.05,0,0)" xlink:href="#aq"/><use transform="matrix(0.05,0,0,0.05,10,0)" xlink:href="#ar"/><use transform="matrix(0.05,0,0,0.05,15,0)" xlink:href="#ar"/><use transform="matrix(0.05,0,0,0.05,20,0)" xlink:href="#as"/><use transform="matrix(0.05,0,0,0.05,30,0)" xlink:href="#at"/><use transform="matrix(0.05,0,0,0.05,35,0)" xlink:href="#au"/><use transform="matrix(0.05,0,0,0.05,40,0)" xlink:href="#au"/><use transform="matrix(0.05,0,0,0.05,45,0)" xlink:href="#av"/><use transform="matrix(0.05,0,0,0.05,55,0)" xlink:href="#ar"/><use transform="matrix(0.05,0,0,0.05,60,0)" xlink:href="#aw"/><use transform="matrix(0.05,0,0,0.05,74.95,0)" xlink:href="#ax"/><use transform="matrix(0.05,0,0,0.05,79.95,0)" xlink:href="#ay"/><use transform="matrix(0.05,0,0,0.05,84.95,0)" xlink:href="#az"/><use transform="matrix(0.05,0,0,0.05,94.95,0)" xlink:href="#az"/><use transform="matrix(0.05,0,0,0.05,104.95,0)" xlink:href="#ax"/><use transform="matrix(0.05,0,0,0.05,109.95,0)" xlink:href="#aA"/><use transform="matrix(0.05,0,0,0.05,119.95,0)" xlink:href="#av"/><use transform="matrix(0.05,0,0,0.05,129.95,0)" xlink:href="#aB"/><use transform="matrix(0.05,0,0,0.05,135.89999999999998,0)" xlink:href="#au"/></g><path d="M51-54c-9 22 5 41 31 30L79-1C43 14 10-4 19-52l22-115H19l5-23h22l19-43h21l-9 43h35l-4 23H73" id="aC"/><path d="M198-190L69 30C53 58 25 83-20 72c4-11-1-27 19-22 33-1 43-29 59-52L20-190h32L79-34l84-156h35" id="aD"/><path d="M67-162c32-53 139-36 121 50C175-51 163 2 97 4 68 4 52-11 42-31 38 6 28 39 22 75H-9l50-265h29c-1 10 0 20-3 28zm89 36c0-26-10-43-35-43-54 0-67 50-69 103-1 29 14 45 42 46 53 0 62-58 62-106" id="aE"/><path d="M111-194c62-3 86 47 72 106H45c-7 38 6 69 45 68 27-1 43-14 53-32l24 11C152-15 129 4 87 4 38 3 12-23 12-71c0-70 32-119 99-123zm44 81c14-66-71-72-95-28-4 8-8 17-11 28h106" id="aF"/><g id="c"><use transform="matrix(0.05,0,0,0.05,0,0)" xlink:href="#aC"/><use transform="matrix(0.05,0,0,0.05,5,0)" xlink:href="#aD"/><use transform="matrix(0.05,0,0,0.05,14,0)" xlink:href="#aE"/><use transform="matrix(0.05,0,0,0.05,24,0)" xlink:href="#aF"/></g><path d="M50-231l6-30h32l-6 30H50zM6 0l37-190h31L37 0H6" id="aG"/><path d="M67-158c22-48 132-52 116 29L158 0h-32l25-140c3-38-53-32-70-12C52-117 51-52 38 0H6l36-190h30" id="aH"/><g id="d"><use transform="matrix(0.05,0,0,0.05,0,0)" xlink:href="#aG"/><use transform="matrix(0.05,0,0,0.05,3.95,0)" xlink:href="#aH"/></g><path d="M30-147c31-64 166-65 159 27C183-49 158 1 86 4 9 8 1-88 30-147zM88-20c53 0 68-48 68-100 0-31-11-51-44-50-52 1-68 46-68 97 0 32 13 53 44 53" id="aI"/><path d="M67 3c-93-2-31-127-26-193h32L48-50c-3 39 53 32 70 12 30-34 30-101 43-152h32L157 0h-30c1-10 6-24 4-33-14 20-29 37-64 36" id="aJ"/><path d="M66-151c12-25 30-51 66-40l-6 26C45-176 58-65 38 0H6l36-190h30" id="aK"/><g id="e"><use transform="matrix(0.05,0,0,0.05,0,0)" xlink:href="#aD"/><use transform="matrix(0.05,0,0,0.05,9,0)" xlink:href="#aI"/><use transform="matrix(0.05,0,0,0.05,19,0)" xlink:href="#aJ"/><use transform="matrix(0.05,0,0,0.05,29,0)" xlink:href="#aK"/></g><path d="M165-48c-4 18 1 34 23 27l-3 20c-29 8-62 0-52-35h-2C116-14 99 4 63 4 30 4 8-16 8-49c0-68 71-67 138-67 10-26 0-56-31-54-26 1-42 9-47 31l-32-5c8-67 160-71 144 15-5 28-9 54-15 81zM42-50c3 52 80 24 89-6 7-12 7-24 11-38-47 1-103-4-100 44" id="aL"/><path d="M44-68c0 29 11 47 38 47 30 0 42-19 51-41l28 9C148-21 126 4 82 4 31 4 10-29 12-85c3-77 74-140 146-93 12 8 15 23 18 40l-31 5c-1-22-13-36-36-36-52 0-65 49-65 101" id="aM"/><g id="f"><use transform="matrix(0.05,0,0,0.05,0,0)" xlink:href="#aL"/><use transform="matrix(0.05,0,0,0.05,10,0)" xlink:href="#aM"/><use transform="matrix(0.05,0,0,0.05,19,0)" xlink:href="#aM"/><use transform="matrix(0.05,0,0,0.05,28,0)" xlink:href="#aI"/><use transform="matrix(0.05,0,0,0.05,38,0)" xlink:href="#aJ"/><use transform="matrix(0.05,0,0,0.05,48,0)" xlink:href="#aH"/><use transform="matrix(0.05,0,0,0.05,58,0)" xlink:href="#aC"/></g><path d="M248-111c6-24 9-61-24-58-72 9-57 108-77 169h-31l26-142c3-37-50-30-64-10C52-115 50-51 37 0H6l36-190h30c-1 10-6 24-4 32 13-43 101-52 105 5 13-22 29-41 61-41 90 0 28 129 23 194h-31" id="aN"/><path d="M68-162c25-46 127-43 121 31C183-60 169 1 98 4 69 5 53-11 43-31L36 0H5l52-261h31zm88 36c2-27-9-43-34-43-55 0-70 51-70 103 0 29 15 45 43 46 52 0 58-58 61-106" id="aO"/><g id="g"><use transform="matrix(0.05,0,0,0.05,0,0)" xlink:href="#aH"/><use transform="matrix(0.05,0,0,0.05,10,0)" xlink:href="#aJ"/><use transform="matrix(0.05,0,0,0.05,20,0)" xlink:href="#aN"/><use transform="matrix(0.05,0,0,0.05,34.95,0)" xlink:href="#aO"/><use transform="matrix(0.05,0,0,0.05,44.95,0)" xlink:href="#aF"/><use transform="matrix(0.05,0,0,0.05,54.95,0)" xlink:href="#aK"/></g><path d="M238-179c0 84-86 86-175 82L45 0H11l48-248c82 0 179-12 179 69zm-34 1c0-53-64-42-116-43l-19 98c63 0 135 9 135-55" id="aP"/><path d="M14 0l48-248h34L48 0H14" id="aQ"/><path d="M173 0L80-213 41 0H11l48-248h37l94 214 40-214h30L212 0h-39" id="aR"/><g id="h"><use transform="matrix(0.05,0,0,0.05,0,0)" xlink:href="#aP"/><use transform="matrix(0.05,0,0,0.05,12,0)" xlink:href="#aQ"/><use transform="matrix(0.05,0,0,0.05,17,0)" xlink:href="#aR"/></g><path d="M185-189c-5-48-123-54-124 2 14 75 158 14 163 119 3 78-121 87-175 55-17-10-28-26-33-46l33-7c5 56 141 63 141-1 0-78-155-14-162-118-5-82 145-84 179-34 5 7 8 16 11 25" id="aS"/><path d="M24-231v-30h32v30H24zM24 0v-190h32V0H24" id="aT"/><path d="M177-190C167-65 218 103 67 71c-23-6-38-20-44-43l32-5c15 47 100 32 89-28v-30C133-14 115 1 83 1 29 1 15-40 15-95c0-56 16-97 71-98 29-1 48 16 59 35 1-10 0-23 2-32h30zM94-22c36 0 50-32 50-73 0-42-14-75-50-75-39 0-46 34-46 75s6 73 46 73" id="aU"/><path d="M117-194c89-4 53 116 60 194h-32v-121c0-31-8-49-39-48C34-167 62-67 57 0H25l-1-190h30c1 10-1 24 2 32 11-22 29-35 61-36" id="aV"/><g id="i"><use transform="matrix(0.05,0,0,0.05,0,0)" xlink:href="#aS"/><use transform="matrix(0.05,0,0,0.05,12,0)" xlink:href="#aT"/><use transform="matrix(0.05,0,0,0.05,15.949999999999998,0)" xlink:href="#aU"/><use transform="matrix(0.05,0,0,0.05,25.950000000000003,0)" xlink:href="#aV"/></g><path d="M33 0v-248h34V0H33" id="aW"/><g id="j"><use transform="matrix(0.05,0,0,0.05,0,0)" xlink:href="#aW"/><use transform="matrix(0.05,0,0,0.05,5,0)" xlink:href="#aV"/></g><path d="M30-248c118-7 216 8 213 122C240-48 200 0 122 0H30v-248zM63-27c89 8 146-16 146-99s-60-101-146-95v194" id="aX"/><path d="M135-143c-3-34-86-38-87 0 15 53 115 12 119 90S17 21 10-45l28-5c4 36 97 45 98 0-10-56-113-15-118-90-4-57 82-63 122-42 12 7 21 19 24 35" id="aY"/><path d="M85-194c31 0 48 13 60 33l-1-100h32l1 261h-30c-2-10 0-23-3-31C134-8 116 4 85 4 32 4 16-35 15-94c0-66 23-100 70-100zm9 24c-40 0-46 34-46 75 0 40 6 74 45 74 42 0 51-32 51-76 0-42-9-74-50-73" id="aZ"/><g id="k"><use transform="matrix(0.05,0,0,0.05,0,0)" xlink:href="#aX"/><use transform="matrix(0.05,0,0,0.05,12.950000000000001,0)" xlink:href="#av"/><use transform="matrix(0.05,0,0,0.05,22.950000000000003,0)" xlink:href="#aY"/><use transform="matrix(0.05,0,0,0.05,31.950000000000003,0)" xlink:href="#aq"/><use transform="matrix(0.05,0,0,0.05,41.95,0)" xlink:href="#aA"/><use transform="matrix(0.05,0,0,0.05,51.95,0)" xlink:href="#az"/><use transform="matrix(0.05,0,0,0.05,61.95,0)" xlink:href="#av"/><use transform="matrix(0.05,0,0,0.05,71.95,0)" xlink:href="#aB"/><use transform="matrix(0.05,0,0,0.05,77.9,0)" xlink:href="#aZ"/></g><g id="l"><use transform="matrix(0.05,0,0,0.05,0,0)" xlink:href="#aq"/><use transform="matrix(0.05,0,0,0.05,10,0)" xlink:href="#ar"/><use transform="matrix(0.05,0,0,0.05,15,0)" xlink:href="#ar"/><use transform="matrix(0.05,0,0,0.05,20,0)" xlink:href="#as"/><use transform="matrix(0.05,0,0,0.05,30,0)" xlink:href="#at"/><use transform="matrix(0.05,0,0,0.05,35,0)" xlink:href="#au"/><use transform="matrix(0.05,0,0,0.05,40,0)" xlink:href="#au"/><use transform="matrix(0.05,0,0,0.05,45,0)" xlink:href="#av"/><use transform="matrix(0.05,0,0,0.05,55,0)" xlink:href="#ar"/><use transform="matrix(0.05,0,0,0.05,60,0)" xlink:href="#aw"/><use transform="matrix(0.05,0,0,0.05,74.95,0)" xlink:href="#ax"/><use transform="matrix(0.05,0,0,0.05,79.95,0)" xlink:href="#ay"/><use transform="matrix(0.05,0,0,0.05,84.95,0)" xlink:href="#az"/><use transform="matrix(0.05,0,0,0.05,94.95,0)" xlink:href="#az"/><use transform="matrix(0.05,0,0,0.05,104.95,0)" xlink:href="#ax"/><use transform="matrix(0.05,0,0,0.05,109.95,0)" xlink:href="#aA"/><use transform="matrix(0.05,0,0,0.05,119.95,0)" xlink:href="#av"/><use transform="matrix(0.05,0,0,0.05,129.95,0)" xlink:href="#aB"/><use transform="matrix(0.05,0,0,0.05,135.89999999999998,0)" xlink:href="#au"/><use transform="matrix(0.05,0,0,0.05,140.89999999999998,0)" xlink:href="#aZ"/><use transform="matrix(0.05,0,0,0.05,150.89999999999998,0)" xlink:href="#av"/><use transform="matrix(0.05,0,0,0.05,160.89999999999998,0)" xlink:href="#aY"/><use transform="matrix(0.05,0,0,0.05,169.89999999999998,0)" xlink:href="#aq"/><use transform="matrix(0.05,0,0,0.05,179.89999999999998,0)" xlink:href="#aA"/><use transform="matrix(0.05,0,0,0.05,189.89999999999998,0)" xlink:href="#az"/><use transform="matrix(0.05,0,0,0.05,199.89999999999998,0)" xlink:href="#av"/><use transform="matrix(0.05,0,0,0.05,209.89999999999998,0)" xlink:href="#aB"/><use transform="matrix(0.05,0,0,0.05,215.84999999999997,0)" xlink:href="#aZ"/></g><path d="M18-100v-36l175-74v27L42-118l151 64v27" id="ba"/><g id="m"><use transform="matrix(0.05,0,0,0.05,0,0)" xlink:href="#ba"/><use transform="matrix(0.05,0,0,0.05,10.5,0)" xlink:href="#ay"/><use transform="matrix(0.05,0,0,0.05,15.5,0)" xlink:href="#aT"/><use transform="matrix(0.05,0,0,0.05,19.45,0)" xlink:href="#aB"/><use transform="matrix(0.05,0,0,0.05,25.4,0)" xlink:href="#aY"/><use transform="matrix(0.05,0,0,0.05,34.4,0)" xlink:href="#ar"/></g><path d="M100-194c63 0 86 42 84 106H49c0 40 14 67 53 68 26 1 43-12 49-29l28 8c-11 28-37 45-77 45C44 4 14-33 15-96c1-61 26-98 85-98zm52 81c6-60-76-77-97-28-3 7-6 17-6 28h103" id="bb"/><path d="M68-38c1 34 0 65-14 84H32c9-13 17-26 17-46H33v-38h35" id="bc"/><g id="n"><use transform="matrix(0.05,0,0,0.05,0,0)" xlink:href="#aV"/><use transform="matrix(0.05,0,0,0.05,10,0)" xlink:href="#av"/><use transform="matrix(0.05,0,0,0.05,20,0)" xlink:href="#aw"/><use transform="matrix(0.05,0,0,0.05,34.95,0)" xlink:href="#bb"/><use transform="matrix(0.05,0,0,0.05,44.95,0)" xlink:href="#bc"/></g><path d="M24 0v-261h32V0H24" id="bd"/><g id="o"><use transform="matrix(0.05,0,0,0.05,0,0)" xlink:href="#bd"/><use transform="matrix(0.05,0,0,0.05,3.95,0)" xlink:href="#av"/><use transform="matrix(0.05,0,0,0.05,13.949999999999998,0)" xlink:href="#aY"/><use transform="matrix(0.05,0,0,0.05,22.95,0)" xlink:href="#ar"/></g><path d="M18-27v-27l151-64-151-65v-27l175 74v36" id="be"/><g id="p"><use transform="matrix(0.05,0,0,0.05,0,0)" xlink:href="#aV"/><use transform="matrix(0.05,0,0,0.05,10,0)" xlink:href="#av"/><use transform="matrix(0.05,0,0,0.05,20,0)" xlink:href="#aw"/><use transform="matrix(0.05,0,0,0.05,34.95,0)" xlink:href="#bb"/><use transform="matrix(0.05,0,0,0.05,44.95,0)" xlink:href="#be"/></g><path d="M84 4C-5 8 30-112 23-190h32v120c0 31 7 50 39 49 72-2 45-101 50-169h31l1 190h-30c-1-10 1-25-2-33-11 22-28 36-60 37" id="bf"/><path d="M96-169c-40 0-48 33-48 73s9 75 48 75c24 0 41-14 43-38l32 2c-6 37-31 61-74 61-59 0-76-41-82-99-10-93 101-131 147-64 4 7 5 14 7 22l-32 3c-4-21-16-35-41-35" id="bg"/><g id="q"><use transform="matrix(0.05,0,0,0.05,0,0)" xlink:href="#aY"/><use transform="matrix(0.05,0,0,0.05,9,0)" xlink:href="#bf"/><use transform="matrix(0.05,0,0,0.05,19,0)" xlink:href="#bg"/><use transform="matrix(0.05,0,0,0.05,28,0)" xlink:href="#bg"/><use transform="matrix(0.05,0,0,0.05,37,0)" xlink:href="#bb"/><use transform="matrix(0.05,0,0,0.05,47,0)" xlink:href="#aY"/><use transform="matrix(0.05,0,0,0.05,56,0)" xlink:href="#aY"/><use transform="matrix(0.05,0,0,0.05,65,0)" xlink:href="#ay"/><use transform="matrix(0.05,0,0,0.05,70,0)" xlink:href="#bf"/><use transform="matrix(0.05,0,0,0.05,80,0)" xlink:href="#bd"/></g><g id="r"><use transform="matrix(0.05,0,0,0.05,0,0)" xlink:href="#av"/><use transform="matrix(0.05,0,0,0.05,10,0)" xlink:href="#bf"/><use transform="matrix(0.05,0,0,0.05,20,0)" xlink:href="#ar"/><use transform="matrix(0.05,0,0,0.05,25,0)" xlink:href="#aq"/><use transform="matrix(0.05,0,0,0.05,35,0)" xlink:href="#bb"/><use transform="matrix(0.05,0,0,0.05,45,0)" xlink:href="#aV"/><use transform="matrix(0.05,0,0,0.05,55,0)" xlink:href="#ar"/><use transform="matrix(0.05,0,0,0.05,60,0)" xlink:href="#aT"/><use transform="matrix(0.05,0,0,0.05,63.95,0)" xlink:href="#bg"/><use transform="matrix(0.05,0,0,0.05,72.95,0)" xlink:href="#av"/><use transform="matrix(0.05,0,0,0.05,82.95,0)" xlink:href="#ar"/><use transform="matrix(0.05,0,0,0.05,87.95,0)" xlink:href="#aT"/><use transform="matrix(0.05,0,0,0.05,91.9,0)" xlink:href="#az"/><use transform="matrix(0.05,0,0,0.05,101.9,0)" xlink:href="#aV"/></g><g id="s"><use transform="matrix(0.05,0,0,0.05,0,0)" xlink:href="#bf"/><use transform="matrix(0.05,0,0,0.05,10,0)" xlink:href="#aV"/><use transform="matrix(0.05,0,0,0.05,20,0)" xlink:href="#aY"/><use transform="matrix(0.05,0,0,0.05,29,0)" xlink:href="#bf"/><use transform="matrix(0.05,0,0,0.05,39,0)" xlink:href="#bg"/><use transform="matrix(0.05,0,0,0.05,48,0)" xlink:href="#bg"/><use transform="matrix(0.05,0,0,0.05,57,0)" xlink:href="#bb"/><use transform="matrix(0.05,0,0,0.05,67,0)" xlink:href="#aY"/><use transform="matrix(0.05,0,0,0.05,76,0)" xlink:href="#aY"/><use transform="matrix(0.05,0,0,0.05,85,0)" xlink:href="#ay"/><use transform="matrix(0.05,0,0,0.05,90,0)" xlink:href="#bf"/><use transform="matrix(0.05,0,0,0.05,100,0)" xlink:href="#bd"/></g><g id="t"><use transform="matrix(0.05,0,0,0.05,0,0)" xlink:href="#ap"/><use transform="matrix(0.05,0,0,0.05,14.950000000000001,0)" xlink:href="#bb"/><use transform="matrix(0.05,0,0,0.05,24.950000000000003,0)" xlink:href="#aY"/><use transform="matrix(0.05,0,0,0.05,33.95,0)" xlink:href="#aY"/><use transform="matrix(0.05,0,0,0.05,42.95,0)" xlink:href="#av"/><use transform="matrix(0.05,0,0,0.05,52.95,0)" xlink:href="#aU"/><use transform="matrix(0.05,0,0,0.05,62.95,0)" xlink:href="#bb"/></g><path d="M109-170H84l-4-78h32zm-65 0H19l-4-78h33" id="bh"/><path d="M266 0h-40l-56-210L115 0H75L2-248h35L96-30l15-64 43-154h32l59 218 59-218h35" id="bi"/><g id="u"><use transform="matrix(0.05,0,0,0.05,0,0)" xlink:href="#bh"/><use transform="matrix(0.05,0,0,0.05,6.3500000000000005,0)" xlink:href="#bi"/><use transform="matrix(0.05,0,0,0.05,22.95,0)" xlink:href="#aB"/><use transform="matrix(0.05,0,0,0.05,28.899999999999995,0)" xlink:href="#az"/><use transform="matrix(0.05,0,0,0.05,38.9,0)" xlink:href="#aV"/><use transform="matrix(0.05,0,0,0.05,48.9,0)" xlink:href="#aU"/></g><path d="M212-179c-10-28-35-45-73-45-59 0-87 40-87 99 0 60 29 101 89 101 43 0 62-24 78-52l27 14C228-24 195 4 139 4 59 4 22-46 18-125c-6-104 99-153 187-111 19 9 31 26 39 46" id="bj"/><path d="M63-70H37l-4-178h34zM33 0v-35h34V0H33" id="bk"/><g id="v"><use transform="matrix(0.05,0,0,0.05,0,0)" xlink:href="#bj"/><use transform="matrix(0.05,0,0,0.05,12.950000000000001,0)" xlink:href="#aB"/><use transform="matrix(0.05,0,0,0.05,18.900000000000002,0)" xlink:href="#bb"/><use transform="matrix(0.05,0,0,0.05,28.900000000000002,0)" xlink:href="#aZ"/><use transform="matrix(0.05,0,0,0.05,38.900000000000006,0)" xlink:href="#bb"/><use transform="matrix(0.05,0,0,0.05,48.900000000000006,0)" xlink:href="#aV"/><use transform="matrix(0.05,0,0,0.05,58.900000000000006,0)" xlink:href="#ar"/><use transform="matrix(0.05,0,0,0.05,63.900000000000006,0)" xlink:href="#aT"/><use transform="matrix(0.05,0,0,0.05,67.85000000000001,0)" xlink:href="#av"/><use transform="matrix(0.05,0,0,0.05,77.85000000000001,0)" xlink:href="#bd"/><use transform="matrix(0.05,0,0,0.05,81.80000000000001,0)" xlink:href="#aY"/><use transform="matrix(0.05,0,0,0.05,90.80000000000001,0)" xlink:href="#bk"/><use transform="matrix(0.05,0,0,0.05,95.80000000000001,0)" xlink:href="#bh"/></g><g id="w"><use transform="matrix(0.05,0,0,0.05,0,0)" xlink:href="#aT"/><use transform="matrix(0.05,0,0,0.05,3.95,0)" xlink:href="#aY"/></g><path d="M179-190L93 31C79 59 56 82 12 73V49c39 6 53-20 64-50L1-190h34L92-34l54-156h33" id="bl"/><g id="x"><use transform="matrix(0.05,0,0,0.05,0,0)" xlink:href="#aZ"/><use transform="matrix(0.05,0,0,0.05,10,0)" xlink:href="#aT"/><use transform="matrix(0.05,0,0,0.05,13.949999999999998,0)" xlink:href="#aY"/><use transform="matrix(0.05,0,0,0.05,22.95,0)" xlink:href="#as"/><use transform="matrix(0.05,0,0,0.05,32.95,0)" xlink:href="#bd"/><use transform="matrix(0.05,0,0,0.05,36.900000000000006,0)" xlink:href="#av"/><use transform="matrix(0.05,0,0,0.05,46.900000000000006,0)" xlink:href="#bl"/><use transform="matrix(0.05,0,0,0.05,55.900000000000006,0)" xlink:href="#bb"/><use transform="matrix(0.05,0,0,0.05,65.9,0)" xlink:href="#aZ"/></g><g id="y"><use transform="matrix(0.05,0,0,0.05,0,0)" xlink:href="#aq"/><use transform="matrix(0.05,0,0,0.05,10,0)" xlink:href="#bb"/><use transform="matrix(0.05,0,0,0.05,20,0)" xlink:href="#aB"/><use transform="matrix(0.05,0,0,0.05,25.950000000000003,0)" xlink:href="#bb"/></g><g id="z"><use transform="matrix(0.05,0,0,0.05,0,0)" xlink:href="#aT"/><use transform="matrix(0.05,0,0,0.05,3.95,0)" xlink:href="#ay"/></g><g id="A"><use transform="matrix(0.05,0,0,0.05,0,0)" xlink:href="#av"/><use transform="matrix(0.05,0,0,0.05,10,0)" xlink:href="#bf"/><use transform="matrix(0.05,0,0,0.05,20,0)" xlink:href="#ar"/><use transform="matrix(0.05,0,0,0.05,25,0)" xlink:href="#aq"/><use transform="matrix(0.05,0,0,0.05,35,0)" xlink:href="#bb"/><use transform="matrix(0.05,0,0,0.05,45,0)" xlink:href="#aV"/><use transform="matrix(0.05,0,0,0.05,55,0)" xlink:href="#ar"/><use transform="matrix(0.05,0,0,0.05,60,0)" xlink:href="#aT"/><use transform="matrix(0.05,0,0,0.05,63.95,0)" xlink:href="#bg"/><use transform="matrix(0.05,0,0,0.05,72.95,0)" xlink:href="#av"/><use transform="matrix(0.05,0,0,0.05,82.95,0)" xlink:href="#ar"/><use transform="matrix(0.05,0,0,0.05,87.95,0)" xlink:href="#aT"/><use transform="matrix(0.05,0,0,0.05,91.9,0)" xlink:href="#az"/><use transform="matrix(0.05,0,0,0.05,101.9,0)" xlink:href="#aV"/></g><g id="B"><use transform="matrix(0.05,0,0,0.05,0,0)" xlink:href="#ay"/><use transform="matrix(0.05,0,0,0.05,5,0)" xlink:href="#av"/><use transform="matrix(0.05,0,0,0.05,15,0)" xlink:href="#aT"/><use transform="matrix(0.05,0,0,0.05,18.95,0)" xlink:href="#bd"/><use transform="matrix(0.05,0,0,0.05,22.9,0)" xlink:href="#aY"/></g><path d="M206 0h-36l-40-164L89 0H53L-1-190h32L70-26l43-164h34l41 164 42-164h31" id="bm"/><g id="C"><use transform="matrix(0.05,0,0,0.05,0,0)" xlink:href="#bi"/><use transform="matrix(0.05,0,0,0.05,16.95,0)" xlink:href="#aT"/><use transform="matrix(0.05,0,0,0.05,20.9,0)" xlink:href="#ar"/><use transform="matrix(0.05,0,0,0.05,25.899999999999995,0)" xlink:href="#aq"/><use transform="matrix(0.05,0,0,0.05,35.9,0)" xlink:href="#aZ"/><use transform="matrix(0.05,0,0,0.05,45.9,0)" xlink:href="#aB"/><use transform="matrix(0.05,0,0,0.05,51.85,0)" xlink:href="#av"/><use transform="matrix(0.05,0,0,0.05,61.85,0)" xlink:href="#bm"/><path d="M-.9 1.25h76.6v1.32H-.9z"/></g><g id="D"><use transform="matrix(0.05,0,0,0.05,0,0)" xlink:href="#aX"/><use transform="matrix(0.05,0,0,0.05,12.950000000000001,0)" xlink:href="#bb"/><use transform="matrix(0.05,0,0,0.05,22.950000000000003,0)" xlink:href="#as"/><use transform="matrix(0.05,0,0,0.05,32.95,0)" xlink:href="#az"/><use transform="matrix(0.05,0,0,0.05,42.95,0)" xlink:href="#aY"/><use transform="matrix(0.05,0,0,0.05,51.95,0)" xlink:href="#aT"/><use transform="matrix(0.05,0,0,0.05,55.900000000000006,0)" xlink:href="#ar"/><path d="M-.9 1.25h62.7v1.32H-.9z"/></g><path d="M30 0v-248h33v221h125V0H30" id="bn"/><g id="E"><use transform="matrix(0.05,0,0,0.05,0,0)" xlink:href="#bn"/><use transform="matrix(0.05,0,0,0.05,10,0)" xlink:href="#az"/><use transform="matrix(0.05,0,0,0.05,20,0)" xlink:href="#aU"/></g><path d="M140-251c81 0 123 46 123 126C263-46 219 4 140 4 59 4 17-45 17-125s42-126 123-126zm0 227c63 0 89-41 89-101s-29-99-89-99c-61 0-89 39-89 99S79-25 140-24" id="bo"/><g id="F"><use transform="matrix(0.05,0,0,0.05,0,0)" xlink:href="#bo"/><use transform="matrix(0.05,0,0,0.05,14,0)" xlink:href="#bf"/><use transform="matrix(0.05,0,0,0.05,24,0)" xlink:href="#ar"/></g><g id="G"><use transform="matrix(0.05,0,0,0.05,0,0)" xlink:href="#bi"/><use transform="matrix(0.05,0,0,0.05,16.95,0)" xlink:href="#aT"/><use transform="matrix(0.05,0,0,0.05,20.9,0)" xlink:href="#ar"/><use transform="matrix(0.05,0,0,0.05,25.899999999999995,0)" xlink:href="#aq"/><use transform="matrix(0.05,0,0,0.05,35.9,0)" xlink:href="#aZ"/><use transform="matrix(0.05,0,0,0.05,45.9,0)" xlink:href="#aB"/><use transform="matrix(0.05,0,0,0.05,51.85,0)" xlink:href="#av"/><use transform="matrix(0.05,0,0,0.05,61.85,0)" xlink:href="#bm"/></g><g id="H"><use transform="matrix(0.05,0,0,0.05,0,0)" xlink:href="#ap"/><use transform="matrix(0.05,0,0,0.05,14.950000000000001,0)" xlink:href="#az"/><use transform="matrix(0.05,0,0,0.05,24.950000000000003,0)" xlink:href="#aV"/><use transform="matrix(0.05,0,0,0.05,34.95,0)" xlink:href="#bb"/><use transform="matrix(0.05,0,0,0.05,44.95,0)" xlink:href="#bl"/></g><g id="I"><use transform="matrix(0.05,0,0,0.05,0,0)" xlink:href="#aq"/><use transform="matrix(0.05,0,0,0.05,10,0)" xlink:href="#ar"/><use transform="matrix(0.05,0,0,0.05,15,0)" xlink:href="#ar"/><use transform="matrix(0.05,0,0,0.05,20,0)" xlink:href="#as"/><use transform="matrix(0.05,0,0,0.05,30,0)" xlink:href="#at"/><use transform="matrix(0.05,0,0,0.05,35,0)" xlink:href="#au"/><use transform="matrix(0.05,0,0,0.05,40,0)" xlink:href="#au"/><use transform="matrix(0.05,0,0,0.05,45,0)" xlink:href="#av"/><use transform="matrix(0.05,0,0,0.05,55,0)" xlink:href="#ar"/><use transform="matrix(0.05,0,0,0.05,60,0)" xlink:href="#aw"/><use transform="matrix(0.05,0,0,0.05,74.95,0)" xlink:href="#ax"/><use transform="matrix(0.05,0,0,0.05,79.95,0)" xlink:href="#ay"/><use transform="matrix(0.05,0,0,0.05,84.95,0)" xlink:href="#az"/><use transform="matrix(0.05,0,0,0.05,94.95,0)" xlink:href="#az"/><use transform="matrix(0.05,0,0,0.05,104.95,0)" xlink:href="#ax"/><use transform="matrix(0.05,0,0,0.05,109.95,0)" xlink:href="#aA"/><use transform="matrix(0.05,0,0,0.05,119.95,0)" xlink:href="#av"/><use transform="matrix(0.05,0,0,0.05,129.95,0)" xlink:href="#aB"/><use transform="matrix(0.05,0,0,0.05,135.89999999999998,0)" xlink:href="#au"/><use transform="matrix(0.05,0,0,0.05,140.89999999999998,0)" xlink:href="#bm"/><use transform="matrix(0.05,0,0,0.05,153.84999999999997,0)" xlink:href="#aT"/><use transform="matrix(0.05,0,0,0.05,157.79999999999995,0)" xlink:href="#ar"/><use transform="matrix(0.05,0,0,0.05,162.79999999999995,0)" xlink:href="#aq"/><use transform="matrix(0.05,0,0,0.05,172.79999999999995,0)" xlink:href="#aZ"/><use transform="matrix(0.05,0,0,0.05,182.79999999999995,0)" xlink:href="#aB"/><use transform="matrix(0.05,0,0,0.05,188.74999999999994,0)" xlink:href="#av"/><use transform="matrix(0.05,0,0,0.05,198.74999999999994,0)" xlink:href="#bm"/></g><g id="J"><use transform="matrix(0.05,0,0,0.05,0,0)" xlink:href="#an"/><use transform="matrix(0.05,0,0,0.05,12,0)" xlink:href="#aw"/><use transform="matrix(0.05,0,0,0.05,26.950000000000003,0)" xlink:href="#az"/><use transform="matrix(0.05,0,0,0.05,36.95,0)" xlink:href="#bf"/><use transform="matrix(0.05,0,0,0.05,46.95,0)" xlink:href="#aV"/><use transform="matrix(0.05,0,0,0.05,56.95,0)" xlink:href="#ar"/></g><g id="K"><use transform="matrix(0.05,0,0,0.05,0,0)" xlink:href="#ao"/><use transform="matrix(0.05,0,0,0.05,8.950000000000001,0)" xlink:href="#az"/></g><g id="L"><use transform="matrix(0.05,0,0,0.05,0,0)" xlink:href="#bi"/><use transform="matrix(0.05,0,0,0.05,16.95,0)" xlink:href="#aT"/><use transform="matrix(0.05,0,0,0.05,20.9,0)" xlink:href="#ar"/><use transform="matrix(0.05,0,0,0.05,25.899999999999995,0)" xlink:href="#aq"/><use transform="matrix(0.05,0,0,0.05,35.9,0)" xlink:href="#aZ"/><use transform="matrix(0.05,0,0,0.05,45.9,0)" xlink:href="#aB"/><use transform="matrix(0.05,0,0,0.05,51.85,0)" xlink:href="#av"/><use transform="matrix(0.05,0,0,0.05,61.85,0)" xlink:href="#bm"/></g><path d="M137-103V0h-34v-103L8-248h37l75 118 75-118h37" id="bp"/><g id="M"><use transform="matrix(0.05,0,0,0.05,0,0)" xlink:href="#bp"/><use transform="matrix(0.05,0,0,0.05,10.35,0)" xlink:href="#az"/><use transform="matrix(0.05,0,0,0.05,20.35,0)" xlink:href="#bf"/><use transform="matrix(0.05,0,0,0.05,30.35,0)" xlink:href="#aB"/></g><g id="N"><use transform="matrix(0.05,0,0,0.05,0,0)" xlink:href="#bg"/><use transform="matrix(0.05,0,0,0.05,9,0)" xlink:href="#bf"/><use transform="matrix(0.05,0,0,0.05,19,0)" xlink:href="#aB"/><use transform="matrix(0.05,0,0,0.05,24.95,0)" xlink:href="#aB"/><use transform="matrix(0.05,0,0,0.05,30.899999999999995,0)" xlink:href="#bb"/><use transform="matrix(0.05,0,0,0.05,40.9,0)" xlink:href="#aV"/><use transform="matrix(0.05,0,0,0.05,50.9,0)" xlink:href="#ar"/></g><g id="O"><use transform="matrix(0.05,0,0,0.05,0,0)" xlink:href="#aA"/><use transform="matrix(0.05,0,0,0.05,10,0)" xlink:href="#av"/><use transform="matrix(0.05,0,0,0.05,20,0)" xlink:href="#bd"/><use transform="matrix(0.05,0,0,0.05,23.95,0)" xlink:href="#av"/><use transform="matrix(0.05,0,0,0.05,33.95,0)" xlink:href="#aV"/><use transform="matrix(0.05,0,0,0.05,43.95,0)" xlink:href="#bg"/><use transform="matrix(0.05,0,0,0.05,52.95,0)" xlink:href="#bb"/></g><g id="P"><use transform="matrix(0.05,0,0,0.05,0,0)" xlink:href="#aT"/><use transform="matrix(0.05,0,0,0.05,3.95,0)" xlink:href="#aY"/><use transform="matrix(0.05,0,0,0.05,12.949999999999998,0)" xlink:href="#at"/></g><g id="Q"><use transform="matrix(0.05,0,0,0.05,0,0)" xlink:href="#ba"/><use transform="matrix(0.05,0,0,0.05,10.5,0)" xlink:href="#bg"/><use transform="matrix(0.05,0,0,0.05,19.5,0)" xlink:href="#bf"/><use transform="matrix(0.05,0,0,0.05,29.5,0)" xlink:href="#aB"/><use transform="matrix(0.05,0,0,0.05,35.45,0)" xlink:href="#aB"/><use transform="matrix(0.05,0,0,0.05,41.400000000000006,0)" xlink:href="#bb"/><use transform="matrix(0.05,0,0,0.05,51.400000000000006,0)" xlink:href="#aV"/><use transform="matrix(0.05,0,0,0.05,61.400000000000006,0)" xlink:href="#ar"/></g><g id="R"><use transform="matrix(0.05,0,0,0.05,0,0)" xlink:href="#aA"/><use transform="matrix(0.05,0,0,0.05,10,0)" xlink:href="#av"/><use transform="matrix(0.05,0,0,0.05,20,0)" xlink:href="#bd"/><use transform="matrix(0.05,0,0,0.05,23.95,0)" xlink:href="#av"/><use transform="matrix(0.05,0,0,0.05,33.95,0)" xlink:href="#aV"/><use transform="matrix(0.05,0,0,0.05,43.95,0)" xlink:href="#bg"/><use transform="matrix(0.05,0,0,0.05,52.95,0)" xlink:href="#bb"/><use transform="matrix(0.05,0,0,0.05,62.95,0)" xlink:href="#be"/><use transform="matrix(0.05,0,0,0.05,73.45,0)" xlink:href="#ax"/></g><g id="S"><use transform="matrix(0.05,0,0,0.05,0,0)" xlink:href="#aF"/><use transform="matrix(0.05,0,0,0.05,10,0)" xlink:href="#aH"/><use transform="matrix(0.05,0,0,0.05,20,0)" xlink:href="#aC"/><use transform="matrix(0.05,0,0,0.05,25,0)" xlink:href="#aF"/><use transform="matrix(0.05,0,0,0.05,35,0)" xlink:href="#aK"/></g><g id="T"><use transform="matrix(0.05,0,0,0.05,0,0)" xlink:href="#aL"/><use transform="matrix(0.05,0,0,0.05,10,0)" xlink:href="#aN"/><use transform="matrix(0.05,0,0,0.05,24.950000000000003,0)" xlink:href="#aI"/><use transform="matrix(0.05,0,0,0.05,34.95,0)" xlink:href="#aJ"/><use transform="matrix(0.05,0,0,0.05,44.95,0)" xlink:href="#aH"/><use transform="matrix(0.05,0,0,0.05,54.95,0)" xlink:href="#aC"/></g><g id="U"><use transform="matrix(0.05,0,0,0.05,0,0)" xlink:href="#aC"/><use transform="matrix(0.05,0,0,0.05,5,0)" xlink:href="#aI"/></g><path d="M188 0h-37l-8-164L71 0H34L18-190h31l8 164 75-164h34l8 164 74-164h31" id="bq"/><path d="M67-158c15-20 31-36 64-36 94 0 33 127 27 194h-32l25-140c3-38-53-32-70-12C52-117 51-51 37 0H6l51-261h31" id="br"/><path d="M133-28C103 26-5 8 13-77c13-62 24-115 90-117 29-1 46 15 56 35l19-102h32L160 0h-30zM45-64c-2 27 10 43 35 43 54-1 69-50 69-103 0-29-15-46-42-46-53-1-58 58-62 106" id="bs"/><g id="V"><use transform="matrix(0.05,0,0,0.05,0,0)" xlink:href="#bq"/><use transform="matrix(0.05,0,0,0.05,12.950000000000001,0)" xlink:href="#aG"/><use transform="matrix(0.05,0,0,0.05,16.900000000000002,0)" xlink:href="#aC"/><use transform="matrix(0.05,0,0,0.05,21.900000000000002,0)" xlink:href="#br"/><use transform="matrix(0.05,0,0,0.05,31.900000000000002,0)" xlink:href="#bs"/><use transform="matrix(0.05,0,0,0.05,41.900000000000006,0)" xlink:href="#aK"/><use transform="matrix(0.05,0,0,0.05,47.85000000000001,0)" xlink:href="#aL"/><use transform="matrix(0.05,0,0,0.05,57.85,0)" xlink:href="#bq"/></g><g id="W"><use transform="matrix(0.05,0,0,0.05,0,0)" xlink:href="#bi"/><use transform="matrix(0.05,0,0,0.05,16.95,0)" xlink:href="#aT"/><use transform="matrix(0.05,0,0,0.05,20.9,0)" xlink:href="#ar"/><use transform="matrix(0.05,0,0,0.05,25.899999999999995,0)" xlink:href="#aq"/><use transform="matrix(0.05,0,0,0.05,35.9,0)" xlink:href="#aZ"/><use transform="matrix(0.05,0,0,0.05,45.9,0)" xlink:href="#aB"/><use transform="matrix(0.05,0,0,0.05,51.85,0)" xlink:href="#av"/><use transform="matrix(0.05,0,0,0.05,61.85,0)" xlink:href="#bm"/></g><g id="X"><use transform="matrix(0.05,0,0,0.05,0,0)" xlink:href="#aX"/><use transform="matrix(0.05,0,0,0.05,12.950000000000001,0)" xlink:href="#bb"/><use transform="matrix(0.05,0,0,0.05,22.950000000000003,0)" xlink:href="#as"/><use transform="matrix(0.05,0,0,0.05,32.95,0)" xlink:href="#az"/><use transform="matrix(0.05,0,0,0.05,42.95,0)" xlink:href="#aY"/><use transform="matrix(0.05,0,0,0.05,51.95,0)" xlink:href="#aT"/><use transform="matrix(0.05,0,0,0.05,55.900000000000006,0)" xlink:href="#ar"/></g><g id="Y"><use transform="matrix(0.05,0,0,0.05,0,0)" xlink:href="#aq"/><use transform="matrix(0.05,0,0,0.05,10,0)" xlink:href="#ar"/><use transform="matrix(0.05,0,0,0.05,15,0)" xlink:href="#ar"/><use transform="matrix(0.05,0,0,0.05,20,0)" xlink:href="#as"/><use transform="matrix(0.05,0,0,0.05,30,0)" xlink:href="#at"/><use transform="matrix(0.05,0,0,0.05,35,0)" xlink:href="#au"/><use transform="matrix(0.05,0,0,0.05,40,0)" xlink:href="#au"/><use transform="matrix(0.05,0,0,0.05,45,0)" xlink:href="#av"/><use transform="matrix(0.05,0,0,0.05,55,0)" xlink:href="#ar"/><use transform="matrix(0.05,0,0,0.05,60,0)" xlink:href="#aw"/><use transform="matrix(0.05,0,0,0.05,74.95,0)" xlink:href="#ax"/><use transform="matrix(0.05,0,0,0.05,79.95,0)" xlink:href="#ay"/><use transform="matrix(0.05,0,0,0.05,84.95,0)" xlink:href="#az"/><use transform="matrix(0.05,0,0,0.05,94.95,0)" xlink:href="#az"/><use transform="matrix(0.05,0,0,0.05,104.95,0)" xlink:href="#ax"/><use transform="matrix(0.05,0,0,0.05,109.95,0)" xlink:href="#aA"/><use transform="matrix(0.05,0,0,0.05,119.95,0)" xlink:href="#av"/><use transform="matrix(0.05,0,0,0.05,129.95,0)" xlink:href="#aB"/><use transform="matrix(0.05,0,0,0.05,135.89999999999998,0)" xlink:href="#au"/><use transform="matrix(0.05,0,0,0.05,140.89999999999998,0)" xlink:href="#aZ"/><use transform="matrix(0.05,0,0,0.05,150.89999999999998,0)" xlink:href="#bb"/><use transform="matrix(0.05,0,0,0.05,160.89999999999998,0)" xlink:href="#as"/><use transform="matrix(0.05,0,0,0.05,170.89999999999998,0)" xlink:href="#az"/><use transform="matrix(0.05,0,0,0.05,180.89999999999998,0)" xlink:href="#aY"/><use transform="matrix(0.05,0,0,0.05,189.89999999999998,0)" xlink:href="#aT"/><use transform="matrix(0.05,0,0,0.05,193.84999999999997,0)" xlink:href="#ar"/></g><g id="Z"><use transform="matrix(0.05,0,0,0.05,0,0)" xlink:href="#ar"/><use transform="matrix(0.05,0,0,0.05,5,0)" xlink:href="#az"/></g><g id="aa"><use transform="matrix(0.05,0,0,0.05,0,0)" xlink:href="#aX"/><use transform="matrix(0.05,0,0,0.05,12.950000000000001,0)" xlink:href="#bb"/><use transform="matrix(0.05,0,0,0.05,22.950000000000003,0)" xlink:href="#as"/><use transform="matrix(0.05,0,0,0.05,32.95,0)" xlink:href="#az"/><use transform="matrix(0.05,0,0,0.05,42.95,0)" xlink:href="#aY"/><use transform="matrix(0.05,0,0,0.05,51.95,0)" xlink:href="#aT"/><use transform="matrix(0.05,0,0,0.05,55.900000000000006,0)" xlink:href="#ar"/></g><path d="M55-144c13 50 104 24 104 88C159 21 15 23 1-39l26-10c6 40 102 42 102-4-13-50-104-23-104-87 0-71 143-71 148-8l-29 4c-5-35-85-37-89 0" id="bt"/><g id="ab"><use transform="matrix(0.05,0,0,0.05,0,0)" xlink:href="#bs"/><use transform="matrix(0.05,0,0,0.05,10,0)" xlink:href="#aF"/><use transform="matrix(0.05,0,0,0.05,20,0)" xlink:href="#aE"/><use transform="matrix(0.05,0,0,0.05,30,0)" xlink:href="#aI"/><use transform="matrix(0.05,0,0,0.05,40,0)" xlink:href="#bt"/><use transform="matrix(0.05,0,0,0.05,49,0)" xlink:href="#aG"/><use transform="matrix(0.05,0,0,0.05,52.95,0)" xlink:href="#aC"/></g><g id="ac"><use transform="matrix(0.05,0,0,0.05,0,0)" xlink:href="#aX"/><use transform="matrix(0.05,0,0,0.05,12.950000000000001,0)" xlink:href="#bb"/><use transform="matrix(0.05,0,0,0.05,22.950000000000003,0)" xlink:href="#as"/><use transform="matrix(0.05,0,0,0.05,32.95,0)" xlink:href="#az"/><use transform="matrix(0.05,0,0,0.05,42.95,0)" xlink:href="#aY"/><use transform="matrix(0.05,0,0,0.05,51.95,0)" xlink:href="#aT"/><use transform="matrix(0.05,0,0,0.05,55.900000000000006,0)" xlink:href="#ar"/></g><g id="ad"><use transform="matrix(0.05,0,0,0.05,0,0)" xlink:href="#bm"/><use transform="matrix(0.05,0,0,0.05,12.950000000000001,0)" xlink:href="#aT"/><use transform="matrix(0.05,0,0,0.05,16.900000000000002,0)" xlink:href="#ar"/><use transform="matrix(0.05,0,0,0.05,21.900000000000002,0)" xlink:href="#aq"/><use transform="matrix(0.05,0,0,0.05,31.900000000000002,0)" xlink:href="#aZ"/><use transform="matrix(0.05,0,0,0.05,41.900000000000006,0)" xlink:href="#aB"/><use transform="matrix(0.05,0,0,0.05,47.85000000000001,0)" xlink:href="#av"/><use transform="matrix(0.05,0,0,0.05,57.85,0)" xlink:href="#bm"/><use transform="matrix(0.05,0,0,0.05,70.80000000000001,0)" xlink:href="#av"/><use transform="matrix(0.05,0,0,0.05,80.80000000000001,0)" xlink:href="#bd"/></g><g id="ae"><use transform="matrix(0.05,0,0,0.05,0,0)" xlink:href="#aZ"/><use transform="matrix(0.05,0,0,0.05,10,0)" xlink:href="#bb"/><use transform="matrix(0.05,0,0,0.05,20,0)" xlink:href="#as"/><use transform="matrix(0.05,0,0,0.05,30,0)" xlink:href="#az"/><use transform="matrix(0.05,0,0,0.05,40,0)" xlink:href="#aY"/><use transform="matrix(0.05,0,0,0.05,49,0)" xlink:href="#aT"/><use transform="matrix(0.05,0,0,0.05,52.95,0)" xlink:href="#ar"/></g><g id="af"><use transform="matrix(0.05,0,0,0.05,0,0)" xlink:href="#az"/><use transform="matrix(0.05,0,0,0.05,10,0)" xlink:href="#aB"/></g><path d="M160-131c35 5 61 23 61 61C221 17 115-2 30 0v-248c76 3 177-17 177 60 0 33-19 50-47 57zm-97-11c50-1 110 9 110-42 0-47-63-36-110-37v79zm0 115c55-2 124 14 124-45 0-56-70-42-124-44v89" id="bu"/><path d="M143 0L79-87 56-68V0H24v-261h32v163l83-92h37l-77 82L181 0h-38" id="bv"/><g id="ag"><use transform="matrix(0.05,0,0,0.05,0,0)" xlink:href="#bu"/><use transform="matrix(0.05,0,0,0.05,12,0)" xlink:href="#av"/><use transform="matrix(0.05,0,0,0.05,22,0)" xlink:href="#bg"/><use transform="matrix(0.05,0,0,0.05,31,0)" xlink:href="#bv"/><path d="M-.9 1.25h46.8v1.32H-.9z"/></g><g id="ah"><use transform="matrix(0.05,0,0,0.05,0,0)" xlink:href="#ar"/><use transform="matrix(0.05,0,0,0.05,5,0)" xlink:href="#az"/><path d="M-.9 1.25h21.8v1.32H-.9z"/></g><g id="ai"><use transform="matrix(0.05,0,0,0.05,0,0)" xlink:href="#aX"/><use transform="matrix(0.05,0,0,0.05,12.950000000000001,0)" xlink:href="#av"/><use transform="matrix(0.05,0,0,0.05,22.950000000000003,0)" xlink:href="#aY"/><use transform="matrix(0.05,0,0,0.05,31.950000000000003,0)" xlink:href="#aq"/><use transform="matrix(0.05,0,0,0.05,41.95,0)" xlink:href="#aA"/><use transform="matrix(0.05,0,0,0.05,51.95,0)" xlink:href="#az"/><use transform="matrix(0.05,0,0,0.05,61.95,0)" xlink:href="#av"/><use transform="matrix(0.05,0,0,0.05,71.95,0)" xlink:href="#aB"/><use transform="matrix(0.05,0,0,0.05,77.9,0)" xlink:href="#aZ"/><path d="M-.9 1.25h89.7v1.32H-.9z"/></g><path d="M30 0v-248h187v28H63v79h144v27H63v87h162V0H30" id="bw"/><g id="aj"><use transform="matrix(0.05,0,0,0.05,0,0)" xlink:href="#bw"/><use transform="matrix(0.05,0,0,0.05,12,0)" xlink:href="#aB"/><use transform="matrix(0.05,0,0,0.05,17.95,0)" xlink:href="#aB"/><use transform="matrix(0.05,0,0,0.05,23.9,0)" xlink:href="#az"/><use transform="matrix(0.05,0,0,0.05,33.9,0)" xlink:href="#aB"/></g><g id="ak"><use transform="matrix(0.05,0,0,0.05,0,0)" xlink:href="#aw"/><use transform="matrix(0.05,0,0,0.05,14.950000000000001,0)" xlink:href="#bb"/><use transform="matrix(0.05,0,0,0.05,24.950000000000003,0)" xlink:href="#aY"/><use transform="matrix(0.05,0,0,0.05,33.95,0)" xlink:href="#aY"/><use transform="matrix(0.05,0,0,0.05,42.95,0)" xlink:href="#av"/><use transform="matrix(0.05,0,0,0.05,52.95,0)" xlink:href="#aU"/><use transform="matrix(0.05,0,0,0.05,62.95,0)" xlink:href="#bb"/></g><g id="al"><use transform="matrix(0.05,0,0,0.05,0,0)" xlink:href="#bm"/><use transform="matrix(0.05,0,0,0.05,12.950000000000001,0)" xlink:href="#aT"/><use transform="matrix(0.05,0,0,0.05,16.900000000000002,0)" xlink:href="#ar"/><use transform="matrix(0.05,0,0,0.05,21.900000000000002,0)" xlink:href="#aq"/><use transform="matrix(0.05,0,0,0.05,31.900000000000002,0)" xlink:href="#aZ"/><use transform="matrix(0.05,0,0,0.05,41.900000000000006,0)" xlink:href="#aB"/><use transform="matrix(0.05,0,0,0.05,47.85000000000001,0)" xlink:href="#av"/><use transform="matrix(0.05,0,0,0.05,57.85,0)" xlink:href="#bm"/><use transform="matrix(0.05,0,0,0.05,70.80000000000001,0)" xlink:href="#av"/><use transform="matrix(0.05,0,0,0.05,80.80000000000001,0)" xlink:href="#bd"/></g><g id="am"><use transform="matrix(0.05,0,0,0.05,0,0)" xlink:href="#aZ"/><use transform="matrix(0.05,0,0,0.05,10,0)" xlink:href="#bb"/><use transform="matrix(0.05,0,0,0.05,20,0)" xlink:href="#as"/><use transform="matrix(0.05,0,0,0.05,30,0)" xlink:href="#az"/><use transform="matrix(0.05,0,0,0.05,40,0)" xlink:href="#aY"/><use transform="matrix(0.05,0,0,0.05,49,0)" xlink:href="#aT"/><use transform="matrix(0.05,0,0,0.05,52.95,0)" xlink:href="#ar"/></g></defs></g></svg>