<svg xmlns="http://www.w3.org/2000/svg" xmlns:xlink="http://www.w3.org/1999/xlink" width="1331.2" height="1780"><g transform="translate(4 -120)"><path d="M0 0h1323.2v1870.4H0z" fill="#fff"/><path d="M640 140h160v120H640z" stroke="#000" stroke-width="2" fill="#fff"/><use xlink:href="#a" transform="matrix(1,0,0,1,640,140) translate(57.08 63.15)"/><path d="M100 140h160v120H100z" stroke="#000" stroke-width="2" fill="#fff"/><use xlink:href="#b" transform="matrix(1,0,0,1,100,140) translate(61.055 63.15)"/><path d="M720 260v1550" fill="none"/><path d="M720 260v9.94m0 9.93v19.87m0 9.94v19.87m0 9.94v19.86m0 9.93v19.87m0 9.93v19.87m0 9.94v19.88m0 9.94v19.87m0 9.93v19.87m0 9.93v19.88m0 9.94V568m0 9.95v19.87m0 9.94v19.87m0 9.93v19.88m0 9.93v19.87m0 9.94v19.87m0 9.94v19.86m0 9.93v19.87m0 9.93v19.87m0 9.94v19.88m0 9.94v19.87m0 9.93v19.87m0 9.93v19.88m0 9.94v19.87m0 9.95v19.87m0 9.94v19.87m0 9.93v19.88m0 9.93v19.87m0 9.94v19.87m0 9.94v19.86m0 9.93v19.87m0 9.93v19.87m0 9.94v19.88m0 9.94v19.87m0 9.93v19.87m0 9.93v19.88m0 9.94V1343m0 9.95v19.87m0 9.94v19.87m0 9.93v19.88m0 9.93v19.87m0 9.94v19.87m0 9.94v19.86m0 9.93v19.87m0 9.93v19.87m0 9.94v19.88m0 9.94v19.87m0 9.93v19.87m0 9.93v19.88m0 9.94v19.87m0 9.95v19.87m0 9.94v19.87m0 9.93v9.94" stroke="#000" stroke-width="2" fill="none"/><path d="M1100 140h160v120h-160z" stroke="#000" stroke-width="2" fill="#fff"/><use xlink:href="#c" transform="matrix(1,0,0,1,1100,140) translate(53.555 63.15)"/><path d="M1180 260v1530" fill="none"/><path d="M1180 260v10m0 10v20m0 10v20m0 10v20m0 10v20m0 10v20m0 10v20m0 10v20m0 10v20m0 10v20m0 10v20m0 10v20m0 10v20m0 10v20m0 10v20m0 10v20m0 10v20m0 10v20m0 10v20m0 10v20m0 10v20m0 10v20m0 10v20m0 10v20m0 10v20m0 10v20m0 10v20m0 10v20m0 10v20m0 10v20m0 10v20m0 10v20m0 10v20m0 10v20m0 10v20m0 10v20m0 10v20m0 10v20m0 10v20m0 10v20m0 10v20m0 10v20m0 10v20m0 10v20m0 10v20m0 10v20m0 10v20m0 10v20m0 10v20m0 10v20m0 10v20m0 10v10" stroke="#000" stroke-width="2" fill="none"/><path d="M180 260v1590" fill="none"/><path d="M180 260v10m0 10v20m0 10v20m0 10v20m0 10v20m0 10v20m0 10v20m0 10v20m0 10v20m0 10v20m0 10v20m0 10v20m0 10v20m0 10v20m0 10v20m0 10v20m0 10v20m0 10v20m0 10v20m0 10v20m0 10v20m0 10v20m0 10v20m0 10v20m0 10v20m0 10v20m0 10v20m0 10v20m0 10v20m0 10v20m0 10v20m0 10v20m0 10v20m0 10v20m0 10v20m0 10v20m0 10v20m0 10v20m0 10v20m0 10v20m0 10v20m0 10v20m0 10v20m0 10v20m0 10v20m0 10v20m0 10v20m0 10v20m0 10v20m0 10v20m0 10v20m0 10v20m0 10v20m0 10v10" stroke="#000" stroke-width="2" fill="none"/><path d="M700 300h40v120h-40zM160 300h40v120h-40z" stroke="#000" stroke-width="2" fill="#fff"/><path d="M699 330.67H201" stroke="#000" stroke-width="2" fill="none"/><path d="M700 331.67h-1v-2h1zM215.27 335.3L201 330.67l14.27-4.64z"/><path d="M216.27 336.68l-16.27-5.3v-1.44l16.27-5.3zm-12.03-6l10.03 3.25v-6.52z"/><use xlink:href="#d" transform="matrix(1,0,0,1,351.6,334.6666666666667) translate(0 14.4)"/><use xlink:href="#e" transform="matrix(1,0,0,1,351.6,334.6666666666667) translate(37.95 14.4)"/><use xlink:href="#f" transform="matrix(1,0,0,1,351.6,334.6666666666667) translate(67.9 14.4)"/><use xlink:href="#g" transform="matrix(1,0,0,1,351.6,334.6666666666667) translate(135.9 14.4)"/><path d="M201 401.33h498" fill="none"/><path d="M201 401.33h3m3.97 0h5.98m3.98 0h5.98m4 0h5.97m3.98 0h5.98m3.98 0h6m3.97 0h5.98m3.98 0h5.98m4 0h5.97m3.98 0h5.98m3.98 0h6m3.97 0h5.98m3.98 0h5.98m4 0h5.97m3.98 0h5.98m3.98 0h6m3.97 0h5.98m3.98 0h5.98m4 0h5.97m3.98 0h5.98m3.98 0h6m3.97 0h5.98m3.98 0h5.98m4 0h5.97m3.98 0h5.98m3.98 0h6m3.97 0h5.98m3.98 0h5.98m4 0h5.97m3.98 0h5.98m3.98 0h6m3.97 0h5.98m3.98 0h5.98m4 0h5.97m3.98 0h5.98m3.98 0h6m3.97 0h5.98m3.98 0h5.98m4 0h5.97m3.98 0h5.98m3.98 0h6m3.97 0h5.98m3.98 0h5.98m4 0h5.97m3.98 0h5.98m3.98 0h6m3.97 0h5.98m3.98 0h5.98m4 0h5.97m3.98 0h5.98m3.98 0h3" stroke="#000" stroke-width="2" fill="none"/><path d="M201 402.33h-1v-2h1zM699 401.33l-14.27 4.64v-9.27z"/><path d="M700 400.6v1.46l-16.27 5.3V395.3zm-14.27 4l10.03-3.27-10.03-3.26z"/><use xlink:href="#h" transform="matrix(1,0,0,1,385.55,375.7333333333333) translate(0 14.4)"/><use xlink:href="#g" transform="matrix(1,0,0,1,385.55,375.7333333333333) translate(68 14.4)"/><path d="M700 460h40v120h-40zM160 460h40v120h-40z" stroke="#000" stroke-width="2" fill="#fff"/><path d="M699 478.67H201" stroke="#000" stroke-width="2" fill="none"/><path d="M700 479.67h-1v-2h1zM215.27 483.3L201 478.67l14.27-4.64z"/><path d="M216.27 484.68l-16.27-5.3v-1.44l16.27-5.3zm-12.03-6l10.03 3.25v-6.52z"/><use xlink:href="#d" transform="matrix(1,0,0,1,384.1,482.6666666666667) translate(0 14.4)"/><use xlink:href="#e" transform="matrix(1,0,0,1,384.1,482.6666666666667) translate(37.95 14.4)"/><use xlink:href="#i" transform="matrix(1,0,0,1,384.1,482.6666666666667) translate(67.9 14.4)"/><use xlink:href="#j" transform="matrix(1,0,0,1,384.1,482.6666666666667) translate(107.85000000000001 14.4)"/><path d="M201 552h498" fill="none"/><path d="M201 552h3m3.97 0h5.98m3.98 0h5.98m4 0h5.97m3.98 0h5.98m3.98 0h6m3.97 0h5.98m3.98 0h5.98m4 0h5.97m3.98 0h5.98m3.98 0h6m3.97 0h5.98m3.98 0h5.98m4 0h5.97m3.98 0h5.98m3.98 0h6m3.97 0h5.98m3.98 0h5.98m4 0h5.97m3.98 0h5.98m3.98 0h6m3.97 0h5.98m3.98 0h5.98m4 0h5.97m3.98 0h5.98m3.98 0h6m3.97 0h5.98m3.98 0h5.98m4 0h5.97m3.98 0h5.98m3.98 0h6m3.97 0h5.98m3.98 0h5.98m4 0h5.97m3.98 0h5.98m3.98 0h6m3.97 0h5.98m3.98 0h5.98m4 0h5.97m3.98 0h5.98m3.98 0h6m3.97 0h5.98m3.98 0h5.98m4 0h5.97m3.98 0h5.98m3.98 0h6m3.97 0h5.98m3.98 0h5.98m4 0h5.97m3.98 0h5.98m3.98 0h3" stroke="#000" stroke-width="2" fill="none"/><path d="M201 553h-1v-2h1zM699 552l-14.27 4.64v-9.28z"/><path d="M700 551.27v1.46L683.73 558v-12zm-14.27 4l10.03-3.27-10.03-3.26z"/><use xlink:href="#k" transform="matrix(1,0,0,1,438.025,526.4000000000001) translate(0 14.4)"/><path d="M700 620h40v120h-40zM1160 620h40v120h-40z" stroke="#000" stroke-width="2" fill="#fff"/><path d="M741 646.67h418" stroke="#000" stroke-width="2" fill="none"/><path d="M741 647.67h-1v-2h1zM1159 646.67l-14.27 4.63v-9.27z"/><path d="M1160 645.94v1.45l-16.27 5.28v-12.03zm-14.27 4l10.03-3.27-10.03-3.26z"/><use xlink:href="#l" transform="matrix(1,0,0,1,811.65,621.0666666666667) translate(0 14.4)"/><use xlink:href="#m" transform="matrix(1,0,0,1,811.65,621.0666666666667) translate(246.79999999999998 14.4)"/><path d="M1159 714.67H741" fill="none"/><path d="M1159 714.67h-3m-3.97 0h-5.97m-3.98 0h-5.97m-3.97 0h-5.97m-3.98 0h-5.98m-3.98 0h-5.97m-3.98 0h-5.97m-3.98 0h-5.97m-3.98 0h-5.97m-4 0h-5.96m-3.98 0h-5.97m-4 0h-5.96m-3.98 0h-5.97m-4 0h-5.97m-3.98 0h-5.97m-3.98 0h-5.97m-3.98 0h-5.97m-3.98 0h-5.98m-3.98 0h-5.97m-3.98 0h-5.98m-3.98 0h-5.97m-3.98 0h-6m-3.97 0h-5.97m-3.98 0h-5.97m-3.97 0h-5.97m-3.98 0h-5.98m-3.98 0h-5.97m-3.98 0h-5.97m-3.98 0h-5.97m-3.98 0h-5.97m-4 0h-5.96m-3.98 0h-5.97m-4 0h-5.96m-3.98 0h-5.97m-4 0h-5.97m-3.98 0h-5.97m-3.98 0h-5.97m-3.98 0h-5.97m-3.98 0h-5.98m-3.98 0h-5.97m-3.98 0h-5.98m-3.98 0h-5.97m-3.98 0h-3" stroke="#000" stroke-width="2" fill="none"/><path d="M1160 715.67h-1v-2h1zM755.27 719.3L741 714.67l14.27-4.64z"/><path d="M756.27 720.68l-16.27-5.3v-1.44l16.27-5.3zm-12.03-6l10.03 3.25v-6.52z"/><use xlink:href="#n" transform="matrix(1,0,0,1,867.05,718.6666666666667) translate(0 14.4)"/><path d="M700 960h40v120h-40zM160 960h40v120h-40z" stroke="#000" stroke-width="2" fill="#fff"/><path d="M699 984.67H201" stroke="#000" stroke-width="2" fill="none"/><path d="M700 985.67h-1v-2h1zM215.27 989.3L201 984.67l14.27-4.64z"/><path d="M216.27 990.68l-16.27-5.3v-1.44l16.27-5.3zm-12.03-6l10.03 3.25v-6.52z"/><use xlink:href="#o" transform="matrix(1,0,0,1,240.475,988.6666666666667) translate(0 14.4)"/><use xlink:href="#p" transform="matrix(1,0,0,1,240.475,988.6666666666667) translate(62.95 14.4)"/><use xlink:href="#q" transform="matrix(1,0,0,1,240.475,988.6666666666667) translate(137.8 14.4)"/><use xlink:href="#r" transform="matrix(1,0,0,1,240.475,988.6666666666667) translate(158.75 14.4)"/><use xlink:href="#q" transform="matrix(1,0,0,1,240.475,988.6666666666667) translate(246.45 14.4)"/><use xlink:href="#s" transform="matrix(1,0,0,1,240.475,988.6666666666667) translate(267.4 14.4)"/><use xlink:href="#q" transform="matrix(1,0,0,1,240.475,988.6666666666667) translate(347.25 14.4)"/><use xlink:href="#t" transform="matrix(1,0,0,1,240.475,988.6666666666667) translate(368.2 14.4)"/><path d="M201 1054h498" fill="none"/><path d="M201 1054h3m3.97 0h5.98m3.98 0h5.98m4 0h5.97m3.98 0h5.98m3.98 0h6m3.97 0h5.98m3.98 0h5.98m4 0h5.97m3.98 0h5.98m3.98 0h6m3.97 0h5.98m3.98 0h5.98m4 0h5.97m3.98 0h5.98m3.98 0h6m3.97 0h5.98m3.98 0h5.98m4 0h5.97m3.98 0h5.98m3.98 0h6m3.97 0h5.98m3.98 0h5.98m4 0h5.97m3.98 0h5.98m3.98 0h6m3.97 0h5.98m3.98 0h5.98m4 0h5.97m3.98 0h5.98m3.98 0h6m3.97 0h5.98m3.98 0h5.98m4 0h5.97m3.98 0h5.98m3.98 0h6m3.97 0h5.98m3.98 0h5.98m4 0h5.97m3.98 0h5.98m3.98 0h6m3.97 0h5.98m3.98 0h5.98m4 0h5.97m3.98 0h5.98m3.98 0h6m3.97 0h5.98m3.98 0h5.98m4 0h5.97m3.98 0h5.98m3.98 0h3" stroke="#000" stroke-width="2" fill="none"/><path d="M201 1055h-1v-2h1zM699 1054l-14.27 4.64v-9.28z"/><path d="M700 1053.27v1.46l-16.27 5.28v-12zm-14.27 4l10.03-3.27-10.03-3.26z"/><use xlink:href="#u" transform="matrix(1,0,0,1,426.025,1028.4) translate(0 14.4)"/><path d="M700 780h40v120h-40zM1160 780h40v120h-40z" stroke="#000" stroke-width="2" fill="#fff"/><path d="M741 803.33h418" stroke="#000" stroke-width="2" fill="none"/><path d="M741 804.33h-1v-2h1zM1159 803.33l-14.27 4.64v-9.27z"/><path d="M1160 802.6v1.46l-16.27 5.3V797.3zm-14.27 4l10.03-3.27-10.03-3.26z"/><use xlink:href="#v" transform="matrix(1,0,0,1,829.625,777.7333333333335) translate(0 14.4)"/><path d="M1159 864.67H741" fill="none"/><path d="M1159 864.67h-3m-3.97 0h-5.97m-3.98 0h-5.97m-3.97 0h-5.97m-3.98 0h-5.98m-3.98 0h-5.97m-3.98 0h-5.97m-3.98 0h-5.97m-3.98 0h-5.97m-4 0h-5.96m-3.98 0h-5.97m-4 0h-5.96m-3.98 0h-5.97m-4 0h-5.97m-3.98 0h-5.97m-3.98 0h-5.97m-3.98 0h-5.97m-3.98 0h-5.98m-3.98 0h-5.97m-3.98 0h-5.98m-3.98 0h-5.97m-3.98 0h-6m-3.97 0h-5.97m-3.98 0h-5.97m-3.97 0h-5.97m-3.98 0h-5.98m-3.98 0h-5.97m-3.98 0h-5.97m-3.98 0h-5.97m-3.98 0h-5.97m-4 0h-5.96m-3.98 0h-5.97m-4 0h-5.96m-3.98 0h-5.97m-4 0h-5.97m-3.98 0h-5.97m-3.98 0h-5.97m-3.98 0h-5.97m-3.98 0h-5.98m-3.98 0h-5.97m-3.98 0h-5.98m-3.98 0h-5.97m-3.98 0h-3" stroke="#000" stroke-width="2" fill="none"/><path d="M1160 865.67h-1v-2h1zM755.27 869.3L741 864.67l14.27-4.64z"/><path d="M756.27 870.68l-16.27-5.3v-1.44l16.27-5.3zm-12.03-6l10.03 3.25v-6.52z"/><use xlink:href="#w" transform="matrix(1,0,0,1,886.05,868.6666666666666) translate(0 14.4)"/><use xlink:href="#x" transform="matrix(1,0,0,1,886.05,868.6666666666666) translate(67.95 14.4)"/><path d="M699 884.67H180" stroke="#000" stroke-width="2" fill="none"/><path d="M700 885.67h-1v-2h1z"/><path d="M180 884.67l14.27-4.64v9.27z" stroke="#000" stroke-width="2"/><use xlink:href="#y" transform="matrix(1,0,0,1,347.6,888.6666666666666) translate(0 14.4)"/><use xlink:href="#z" transform="matrix(1,0,0,1,347.6,888.6666666666666) translate(60.900000000000006 14.4)"/><use xlink:href="#A" transform="matrix(1,0,0,1,347.6,888.6666666666666) translate(128.85000000000002 14.4)"/><use xlink:href="#B" transform="matrix(1,0,0,1,347.6,888.6666666666666) translate(148.85000000000002 14.4)"/><path d="M16 1140h100v20l-10 10H16z" fill="#fff"/><path d="M116 1140v20l-10 10H16" stroke="#000" stroke-width="2" fill="none"/><path d="M16 1140h1291.2v740H16zM16 1510h20m15 0h20m15 0h20m15 0h20m15 0h20m15 0h20m15 0h20m15 0h20m15 0h20m15 0h20m15 0h20m15 0h20m15 0h20m15 0h20m15 0h20m15 0h20m15 0h20m15 0h20m15 0h20m15 0h20m15 0h20m15 0h20m15 0h20m15 0h20m15 0h20m15 0h20m15 0h20m15 0h20m15 0h20m15 0h20m15 0h20m15 0h20m15 0h20m15 0h20m15 0h20m15 0h20m15 0h20" stroke="#000" stroke-width="2" fill="none"/><use xlink:href="#C" transform="matrix(1,0,0,1,24,1140) translate(0 18.6)"/><use xlink:href="#D" transform="matrix(1,0,0,1,28,1178) translate(0 18.6)"/><use xlink:href="#E" transform="matrix(1,0,0,1,28,1178) translate(52.95 18.6)"/><use xlink:href="#F" transform="matrix(1,0,0,1,28,1178) translate(78.95 18.6)"/><use xlink:href="#G" transform="matrix(1,0,0,1,28,1178) translate(93.95 18.6)"/><use xlink:href="#H" transform="matrix(1,0,0,1,28,1178) translate(114.9 18.6)"/><use xlink:href="#D" transform="matrix(1,0,0,1,28,1518) translate(0 18.6)"/><use xlink:href="#E" transform="matrix(1,0,0,1,28,1518) translate(52.95 18.6)"/><use xlink:href="#I" transform="matrix(1,0,0,1,28,1518) translate(78.95 18.6)"/><path d="M700 1200h40v120h-40zM160 1200h40v120h-40z" stroke="#000" stroke-width="2" fill="#fff"/><path d="M699 1222H201" stroke="#000" stroke-width="2" fill="none"/><path d="M700 1223h-1v-2h1zM215.27 1226.64L201 1222l14.27-4.64z"/><path d="M216.27 1228l-16.27-5.27v-1.46l16.27-5.28zm-12.03-6l10.03 3.26v-6.52z"/><use xlink:href="#J" transform="matrix(1,0,0,1,403.525,1226) translate(0 14.4)"/><use xlink:href="#x" transform="matrix(1,0,0,1,403.525,1226) translate(33 14.4)"/><path d="M201 1294h498" fill="none"/><path d="M201 1294h3m3.97 0h5.98m3.98 0h5.98m4 0h5.97m3.98 0h5.98m3.98 0h6m3.97 0h5.98m3.98 0h5.98m4 0h5.97m3.98 0h5.98m3.98 0h6m3.97 0h5.98m3.98 0h5.98m4 0h5.97m3.98 0h5.98m3.98 0h6m3.97 0h5.98m3.98 0h5.98m4 0h5.97m3.98 0h5.98m3.98 0h6m3.97 0h5.98m3.98 0h5.98m4 0h5.97m3.98 0h5.98m3.98 0h6m3.97 0h5.98m3.98 0h5.98m4 0h5.97m3.98 0h5.98m3.98 0h6m3.97 0h5.98m3.98 0h5.98m4 0h5.97m3.98 0h5.98m3.98 0h6m3.97 0h5.98m3.98 0h5.98m4 0h5.97m3.98 0h5.98m3.98 0h6m3.97 0h5.98m3.98 0h5.98m4 0h5.97m3.98 0h5.98m3.98 0h6m3.97 0h5.98m3.98 0h5.98m4 0h5.97m3.98 0h5.98m3.98 0h3" stroke="#000" stroke-width="2" fill="none"/><path d="M201 1295h-1v-2h1zM699 1294l-14.27 4.64v-9.28z"/><path d="M700 1293.27v1.46l-16.27 5.28v-12zm-14.27 4l10.03-3.27-10.03-3.26z"/><use xlink:href="#K" transform="matrix(1,0,0,1,420.0249999999999,1268.4) translate(0 14.4)"/><path d="M1160 1360h40v120h-40zM700 1360h40v120h-40z" stroke="#000" stroke-width="2" fill="#fff"/><path d="M741 1376.67h418" stroke="#000" stroke-width="2" fill="none"/><path d="M741 1377.67h-1v-2h1zM1159 1376.67l-14.27 4.63v-9.27z"/><path d="M1160 1375.94v1.45l-16.27 5.28v-12.03zm-14.27 4l10.03-3.27-10.03-3.26z"/><use xlink:href="#L" transform="matrix(1,0,0,1,759.25,1351.0666666666666) translate(0 14.4)"/><use xlink:href="#M" transform="matrix(1,0,0,1,759.25,1351.0666666666666) translate(315.59999999999997 14.4)"/><path d="M1159 1448.67H741" fill="none"/><path d="M1159 1448.67h-3m-3.97 0h-5.97m-3.98 0h-5.97m-3.97 0h-5.97m-3.98 0h-5.98m-3.98 0h-5.97m-3.98 0h-5.97m-3.98 0h-5.97m-3.98 0h-5.97m-4 0h-5.96m-3.98 0h-5.97m-4 0h-5.96m-3.98 0h-5.97m-4 0h-5.97m-3.98 0h-5.97m-3.98 0h-5.97m-3.98 0h-5.97m-3.98 0h-5.98m-3.98 0h-5.97m-3.98 0h-5.98m-3.98 0h-5.97m-3.98 0h-6m-3.97 0h-5.97m-3.98 0h-5.97m-3.97 0h-5.97m-3.98 0h-5.98m-3.98 0h-5.97m-3.98 0h-5.97m-3.98 0h-5.97m-3.98 0h-5.97m-4 0h-5.96m-3.98 0h-5.97m-4 0h-5.96m-3.98 0h-5.97m-4 0h-5.97m-3.98 0h-5.97m-3.98 0h-5.97m-3.98 0h-5.97m-3.98 0h-5.98m-3.98 0h-5.97m-3.98 0h-5.98m-3.98 0h-5.97m-3.98 0h-3" stroke="#000" stroke-width="2" fill="none"/><path d="M1160 1449.67h-1v-2h1zM755.27 1453.3l-14.27-4.63 14.27-4.64z"/><path d="M756.27 1454.68l-16.27-5.3v-1.44l16.27-5.3zm-12.03-6l10.03 3.25v-6.52z"/><g><use xlink:href="#N" transform="matrix(1,0,0,1,867.075,1452.6666666666667) translate(0 14.4)"/><use xlink:href="#z" transform="matrix(1,0,0,1,867.075,1452.6666666666667) translate(37.95 14.4)"/><use xlink:href="#x" transform="matrix(1,0,0,1,867.075,1452.6666666666667) translate(105.9 14.4)"/></g><path d="M699 1467.33H180" stroke="#000" stroke-width="2" fill="none"/><path d="M700 1468.33h-1v-2h1z"/><path d="M180 1467.33l14.27-4.63v9.27z" stroke="#000" stroke-width="2"/><g><use xlink:href="#y" transform="matrix(1,0,0,1,328.625,1471.3333333333333) translate(0 14.4)"/><use xlink:href="#O" transform="matrix(1,0,0,1,328.625,1471.3333333333333) translate(60.900000000000006 14.4)"/><use xlink:href="#z" transform="matrix(1,0,0,1,328.625,1471.3333333333333) translate(98.85000000000001 14.4)"/><use xlink:href="#A" transform="matrix(1,0,0,1,328.625,1471.3333333333333) translate(166.8 14.4)"/><use xlink:href="#B" transform="matrix(1,0,0,1,328.625,1471.3333333333333) translate(186.8 14.4)"/></g><path d="M700 1580h40v120h-40zM1160 1580h40v120h-40z" stroke="#000" stroke-width="2" fill="#fff"/><path d="M741 1602h418" stroke="#000" stroke-width="2" fill="none"/><path d="M741 1603h-1v-2h1zM1159 1602l-14.27 4.64v-9.28z"/><path d="M1160 1601.27v1.46l-16.27 5.28v-12zm-14.27 4l10.03-3.27-10.03-3.26z"/><g><use xlink:href="#v" transform="matrix(1,0,0,1,829.625,1576.4) translate(0 14.4)"/></g><path d="M1159 1682H741" fill="none"/><path d="M1159 1682h-3m-3.97 0h-5.97m-3.98 0h-5.97m-3.97 0h-5.97m-3.98 0h-5.98m-3.98 0h-5.97m-3.98 0h-5.97m-3.98 0h-5.97m-3.98 0h-5.97m-4 0h-5.96m-3.98 0h-5.97m-4 0h-5.96m-3.98 0h-5.97m-4 0h-5.97m-3.98 0h-5.97m-3.98 0h-5.97m-3.98 0h-5.97m-3.98 0h-5.98m-3.98 0h-5.97m-3.98 0h-5.98m-3.98 0h-5.97m-3.98 0h-6m-3.97 0h-5.97m-3.98 0h-5.97m-3.97 0h-5.97m-3.98 0h-5.98m-3.98 0h-5.97m-3.98 0h-5.97m-3.98 0h-5.97m-3.98 0h-5.97m-4 0h-5.96m-3.98 0h-5.97m-4 0h-5.96m-3.98 0h-5.97m-4 0h-5.97m-3.98 0h-5.97m-3.98 0h-5.97m-3.98 0h-5.97m-3.98 0h-5.98m-3.98 0h-5.97m-3.98 0h-5.98m-3.98 0h-5.97m-3.98 0h-3" stroke="#000" stroke-width="2" fill="none"/><path d="M1160 1683h-1v-2h1zM755.27 1686.64L741 1682l14.27-4.64z"/><path d="M756.27 1688l-16.27-5.27v-1.46l16.27-5.28zm-12.03-6l10.03 3.26v-6.52z"/><g><use xlink:href="#w" transform="matrix(1,0,0,1,886.05,1686) translate(0 14.4)"/><use xlink:href="#x" transform="matrix(1,0,0,1,886.05,1686) translate(67.95 14.4)"/></g><path d="M699 1683.33H439.5V1682H180" stroke="#000" stroke-width="2" fill="none"/><path d="M700 1684.33h-1v-2h1z"/><path d="M180 1682l14.27-4.64v9.28z" stroke="#000" stroke-width="2"/><g><use xlink:href="#y" transform="matrix(1,0,0,1,317.13434929040955,1687.3325972804344) translate(0 14.4)"/><use xlink:href="#P" transform="matrix(1,0,0,1,317.13434929040955,1687.3325972804344) translate(60.900000000000006 14.4)"/><use xlink:href="#z" transform="matrix(1,0,0,1,317.13434929040955,1687.3325972804344) translate(121.80000000000001 14.4)"/><use xlink:href="#A" transform="matrix(1,0,0,1,317.13434929040955,1687.3325972804344) translate(189.75 14.4)"/><use xlink:href="#B" transform="matrix(1,0,0,1,317.13434929040955,1687.3325972804344) translate(209.75 14.4)"/></g><defs><path d="M212-179c-10-28-35-45-73-45-59 0-87 40-87 99 0 60 29 101 89 101 43 0 62-24 78-52l27 14C228-24 195 4 139 4 59 4 22-46 18-125c-6-104 99-153 187-111 19 9 31 26 39 46" id="Q"/><path d="M24 0v-261h32V0H24" id="R"/><path d="M24-231v-30h32v30H24zM24 0v-190h32V0H24" id="S"/><path d="M100-194c63 0 86 42 84 106H49c0 40 14 67 53 68 26 1 43-12 49-29l28 8c-11 28-37 45-77 45C44 4 14-33 15-96c1-61 26-98 85-98zm52 81c6-60-76-77-97-28-3 7-6 17-6 28h103" id="T"/><path d="M117-194c89-4 53 116 60 194h-32v-121c0-31-8-49-39-48C34-167 62-67 57 0H25l-1-190h30c1 10-1 24 2 32 11-22 29-35 61-36" id="U"/><path d="M59-47c-2 24 18 29 38 22v24C64 9 27 4 27-40v-127H5v-23h24l9-43h21v43h35v23H59v120" id="V"/><g id="a"><use transform="matrix(0.05,0,0,0.05,0,0)" xlink:href="#Q"/><use transform="matrix(0.05,0,0,0.05,12.950000000000001,0)" xlink:href="#R"/><use transform="matrix(0.05,0,0,0.05,16.900000000000002,0)" xlink:href="#S"/><use transform="matrix(0.05,0,0,0.05,20.85,0)" xlink:href="#T"/><use transform="matrix(0.05,0,0,0.05,30.85,0)" xlink:href="#U"/><use transform="matrix(0.05,0,0,0.05,40.85,0)" xlink:href="#V"/><path d="M-.9 1.25h47.65v1.32H-.9z"/></g><path d="M232-93c-1 65-40 97-104 97C67 4 28-28 28-90v-158h33c8 89-33 224 67 224 102 0 64-133 71-224h33v155" id="W"/><path d="M135-143c-3-34-86-38-87 0 15 53 115 12 119 90S17 21 10-45l28-5c4 36 97 45 98 0-10-56-113-15-118-90-4-57 82-63 122-42 12 7 21 19 24 35" id="X"/><path d="M114-163C36-179 61-72 57 0H25l-1-190h30c1 12-1 29 2 39 6-27 23-49 58-41v29" id="Y"/><g id="b"><use transform="matrix(0.05,0,0,0.05,0,0)" xlink:href="#W"/><use transform="matrix(0.05,0,0,0.05,12.950000000000001,0)" xlink:href="#X"/><use transform="matrix(0.05,0,0,0.05,21.950000000000003,0)" xlink:href="#T"/><use transform="matrix(0.05,0,0,0.05,31.950000000000003,0)" xlink:href="#Y"/><path d="M-.9 1.25h39.7v1.32H-.9z"/></g><path d="M185-189c-5-48-123-54-124 2 14 75 158 14 163 119 3 78-121 87-175 55-17-10-28-26-33-46l33-7c5 56 141 63 141-1 0-78-155-14-162-118-5-82 145-84 179-34 5 7 8 16 11 25" id="Z"/><path d="M108 0H70L1-190h34L89-25l56-165h34" id="aa"/><g id="c"><use transform="matrix(0.05,0,0,0.05,0,0)" xlink:href="#Z"/><use transform="matrix(0.05,0,0,0.05,12,0)" xlink:href="#T"/><use transform="matrix(0.05,0,0,0.05,22,0)" xlink:href="#Y"/><use transform="matrix(0.05,0,0,0.05,27.950000000000003,0)" xlink:href="#aa"/><use transform="matrix(0.05,0,0,0.05,36.95,0)" xlink:href="#T"/><use transform="matrix(0.05,0,0,0.05,46.95,0)" xlink:href="#Y"/><path d="M-.9 1.25h54.7v1.32H-.9z"/></g><path d="M177-190C167-65 218 103 67 71c-23-6-38-20-44-43l32-5c15 47 100 32 89-28v-30C133-14 115 1 83 1 29 1 15-40 15-95c0-56 16-97 71-98 29-1 48 16 59 35 1-10 0-23 2-32h30zM94-22c36 0 50-32 50-73 0-42-14-75-50-75-39 0-46 34-46 75s6 73 46 73" id="ab"/><g id="d"><use transform="matrix(0.05,0,0,0.05,0,0)" xlink:href="#ab"/><use transform="matrix(0.05,0,0,0.05,10,0)" xlink:href="#S"/><use transform="matrix(0.05,0,0,0.05,13.949999999999998,0)" xlink:href="#aa"/><use transform="matrix(0.05,0,0,0.05,22.95,0)" xlink:href="#T"/></g><path d="M210-169c-67 3-38 105-44 169h-31v-121c0-29-5-50-35-48C34-165 62-65 56 0H25l-1-190h30c1 10-1 24 2 32 10-44 99-50 107 0 11-21 27-35 58-36 85-2 47 119 55 194h-31v-121c0-29-5-49-35-48" id="ac"/><g id="e"><use transform="matrix(0.05,0,0,0.05,0,0)" xlink:href="#ac"/><use transform="matrix(0.05,0,0,0.05,14.950000000000001,0)" xlink:href="#T"/></g><path d="M141-36C126-15 110 5 73 4 37 3 15-17 15-53c-1-64 63-63 125-63 3-35-9-54-41-54-24 1-41 7-42 31l-33-3c5-37 33-52 76-52 45 0 72 20 72 64v82c-1 20 7 32 28 27v20c-31 9-61-2-59-35zM48-53c0 20 12 33 32 33 41-3 63-29 60-74-43 2-92-5-92 41" id="ad"/><path d="M96-169c-40 0-48 33-48 73s9 75 48 75c24 0 41-14 43-38l32 2c-6 37-31 61-74 61-59 0-76-41-82-99-10-93 101-131 147-64 4 7 5 14 7 22l-32 3c-4-21-16-35-41-35" id="ae"/><path d="M100-194c62-1 85 37 85 99 1 63-27 99-86 99S16-35 15-95c0-66 28-99 85-99zM99-20c44 1 53-31 53-75 0-43-8-75-51-75s-53 32-53 75 10 74 51 75" id="af"/><path d="M84 4C-5 8 30-112 23-190h32v120c0 31 7 50 39 49 72-2 45-101 50-169h31l1 190h-30c-1-10 1-25-2-33-11 22-28 36-60 37" id="ag"/><g id="f"><use transform="matrix(0.05,0,0,0.05,0,0)" xlink:href="#ad"/><use transform="matrix(0.05,0,0,0.05,10,0)" xlink:href="#ae"/><use transform="matrix(0.05,0,0,0.05,19,0)" xlink:href="#ae"/><use transform="matrix(0.05,0,0,0.05,28,0)" xlink:href="#af"/><use transform="matrix(0.05,0,0,0.05,38,0)" xlink:href="#ag"/><use transform="matrix(0.05,0,0,0.05,48,0)" xlink:href="#U"/><use transform="matrix(0.05,0,0,0.05,58,0)" xlink:href="#V"/></g><path d="M115-194c53 0 69 39 70 98 0 66-23 100-70 100C84 3 66-7 56-30L54 0H23l1-261h32v101c10-23 28-34 59-34zm-8 174c40 0 45-34 45-75 0-40-5-75-45-74-42 0-51 32-51 76 0 43 10 73 51 73" id="ah"/><g id="g"><use transform="matrix(0.05,0,0,0.05,0,0)" xlink:href="#U"/><use transform="matrix(0.05,0,0,0.05,10,0)" xlink:href="#ag"/><use transform="matrix(0.05,0,0,0.05,20,0)" xlink:href="#ac"/><use transform="matrix(0.05,0,0,0.05,34.95,0)" xlink:href="#ah"/><use transform="matrix(0.05,0,0,0.05,44.95,0)" xlink:href="#T"/><use transform="matrix(0.05,0,0,0.05,54.95,0)" xlink:href="#Y"/></g><g id="h"><use transform="matrix(0.05,0,0,0.05,0,0)" xlink:href="#ad"/><use transform="matrix(0.05,0,0,0.05,10,0)" xlink:href="#ae"/><use transform="matrix(0.05,0,0,0.05,19,0)" xlink:href="#ae"/><use transform="matrix(0.05,0,0,0.05,28,0)" xlink:href="#af"/><use transform="matrix(0.05,0,0,0.05,38,0)" xlink:href="#ag"/><use transform="matrix(0.05,0,0,0.05,48,0)" xlink:href="#U"/><use transform="matrix(0.05,0,0,0.05,58,0)" xlink:href="#V"/></g><path d="M179-190L93 31C79 59 56 82 12 73V49c39 6 53-20 64-50L1-190h34L92-34l54-156h33" id="ai"/><g id="i"><use transform="matrix(0.05,0,0,0.05,0,0)" xlink:href="#ai"/><use transform="matrix(0.05,0,0,0.05,9,0)" xlink:href="#af"/><use transform="matrix(0.05,0,0,0.05,19,0)" xlink:href="#ag"/><use transform="matrix(0.05,0,0,0.05,29,0)" xlink:href="#Y"/></g><path d="M115-194c55 1 70 41 70 98S169 2 115 4C84 4 66-9 55-30l1 105H24l-1-265h31l2 30c10-21 28-34 59-34zm-8 174c40 0 45-34 45-75s-6-73-45-74c-42 0-51 32-51 76 0 43 10 73 51 73" id="aj"/><g id="j"><use transform="matrix(0.05,0,0,0.05,0,0)" xlink:href="#aj"/><use transform="matrix(0.05,0,0,0.05,10,0)" xlink:href="#S"/><use transform="matrix(0.05,0,0,0.05,13.949999999999998,0)" xlink:href="#U"/></g><g id="k"><use transform="matrix(0.05,0,0,0.05,0,0)" xlink:href="#aj"/><use transform="matrix(0.05,0,0,0.05,10,0)" xlink:href="#S"/><use transform="matrix(0.05,0,0,0.05,13.949999999999998,0)" xlink:href="#U"/></g><path d="M106-169C34-169 62-67 57 0H25v-261h32l-1 103c12-21 28-36 61-36 89 0 53 116 60 194h-32v-121c2-32-8-49-39-48" id="ak"/><path d="M87 75C49 33 22-17 22-94c0-76 28-126 65-167h31c-38 41-64 92-64 168S80 34 118 75H87" id="al"/><path d="M-5 72V49h209v23H-5" id="am"/><path d="M68-38c1 34 0 65-14 84H32c9-13 17-26 17-46H33v-38h35" id="an"/><g id="l"><use transform="matrix(0.05,0,0,0.05,0,0)" xlink:href="#ad"/><use transform="matrix(0.05,0,0,0.05,10,0)" xlink:href="#ag"/><use transform="matrix(0.05,0,0,0.05,20,0)" xlink:href="#V"/><use transform="matrix(0.05,0,0,0.05,25,0)" xlink:href="#ak"/><use transform="matrix(0.05,0,0,0.05,35,0)" xlink:href="#T"/><use transform="matrix(0.05,0,0,0.05,45,0)" xlink:href="#U"/><use transform="matrix(0.05,0,0,0.05,55,0)" xlink:href="#V"/><use transform="matrix(0.05,0,0,0.05,60,0)" xlink:href="#S"/><use transform="matrix(0.05,0,0,0.05,63.95,0)" xlink:href="#ae"/><use transform="matrix(0.05,0,0,0.05,72.95,0)" xlink:href="#ad"/><use transform="matrix(0.05,0,0,0.05,82.95,0)" xlink:href="#V"/><use transform="matrix(0.05,0,0,0.05,87.95,0)" xlink:href="#T"/><use transform="matrix(0.05,0,0,0.05,97.95,0)" xlink:href="#al"/><use transform="matrix(0.05,0,0,0.05,103.9,0)" xlink:href="#ad"/><use transform="matrix(0.05,0,0,0.05,113.9,0)" xlink:href="#ae"/><use transform="matrix(0.05,0,0,0.05,122.9,0)" xlink:href="#ae"/><use transform="matrix(0.05,0,0,0.05,131.9,0)" xlink:href="#af"/><use transform="matrix(0.05,0,0,0.05,141.9,0)" xlink:href="#ag"/><use transform="matrix(0.05,0,0,0.05,151.9,0)" xlink:href="#U"/><use transform="matrix(0.05,0,0,0.05,161.9,0)" xlink:href="#V"/><use transform="matrix(0.05,0,0,0.05,166.9,0)" xlink:href="#am"/><use transform="matrix(0.05,0,0,0.05,176.9,0)" xlink:href="#U"/><use transform="matrix(0.05,0,0,0.05,186.9,0)" xlink:href="#ag"/><use transform="matrix(0.05,0,0,0.05,196.9,0)" xlink:href="#ac"/><use transform="matrix(0.05,0,0,0.05,211.85000000000002,0)" xlink:href="#ah"/><use transform="matrix(0.05,0,0,0.05,221.85000000000002,0)" xlink:href="#T"/><use transform="matrix(0.05,0,0,0.05,231.85000000000002,0)" xlink:href="#Y"/><use transform="matrix(0.05,0,0,0.05,236.79999999999995,0)" xlink:href="#an"/></g><path d="M33-261c38 41 65 92 65 168S71 34 33 75H2C39 34 66-17 66-93S39-220 2-261h31" id="ao"/><g id="m"><use transform="matrix(0.05,0,0,0.05,0,0)" xlink:href="#aj"/><use transform="matrix(0.05,0,0,0.05,10,0)" xlink:href="#S"/><use transform="matrix(0.05,0,0,0.05,13.949999999999998,0)" xlink:href="#U"/><use transform="matrix(0.05,0,0,0.05,23.95,0)" xlink:href="#ao"/></g><path d="M143 0L79-87 56-68V0H24v-261h32v163l83-92h37l-77 82L181 0h-38" id="ap"/><g id="n"><use transform="matrix(0.05,0,0,0.05,0,0)" xlink:href="#ad"/><use transform="matrix(0.05,0,0,0.05,10,0)" xlink:href="#ag"/><use transform="matrix(0.05,0,0,0.05,20,0)" xlink:href="#V"/><use transform="matrix(0.05,0,0,0.05,25,0)" xlink:href="#ak"/><use transform="matrix(0.05,0,0,0.05,35,0)" xlink:href="#T"/><use transform="matrix(0.05,0,0,0.05,45,0)" xlink:href="#U"/><use transform="matrix(0.05,0,0,0.05,55,0)" xlink:href="#V"/><use transform="matrix(0.05,0,0,0.05,60,0)" xlink:href="#S"/><use transform="matrix(0.05,0,0,0.05,63.95,0)" xlink:href="#ae"/><use transform="matrix(0.05,0,0,0.05,72.95,0)" xlink:href="#ad"/><use transform="matrix(0.05,0,0,0.05,82.95,0)" xlink:href="#V"/><use transform="matrix(0.05,0,0,0.05,87.95,0)" xlink:href="#S"/><use transform="matrix(0.05,0,0,0.05,91.9,0)" xlink:href="#af"/><use transform="matrix(0.05,0,0,0.05,101.9,0)" xlink:href="#U"/><use transform="matrix(0.05,0,0,0.05,111.9,0)" xlink:href="#am"/><use transform="matrix(0.05,0,0,0.05,121.9,0)" xlink:href="#V"/><use transform="matrix(0.05,0,0,0.05,126.9,0)" xlink:href="#af"/><use transform="matrix(0.05,0,0,0.05,136.9,0)" xlink:href="#ap"/><use transform="matrix(0.05,0,0,0.05,145.9,0)" xlink:href="#T"/><use transform="matrix(0.05,0,0,0.05,155.9,0)" xlink:href="#U"/></g><path d="M103-251c84 0 111 97 45 133-19 10-37 24-39 52H78c0-63 77-55 77-114 0-30-21-42-52-43-32 0-53 17-56 46l-32-2c7-45 34-72 88-72zM77 0v-35h34V0H77" id="aq"/><g id="o"><use transform="matrix(0.05,0,0,0.05,0,0)" xlink:href="#ad"/><use transform="matrix(0.05,0,0,0.05,10,0)" xlink:href="#ae"/><use transform="matrix(0.05,0,0,0.05,19,0)" xlink:href="#V"/><use transform="matrix(0.05,0,0,0.05,24,0)" xlink:href="#S"/><use transform="matrix(0.05,0,0,0.05,27.950000000000003,0)" xlink:href="#af"/><use transform="matrix(0.05,0,0,0.05,37.95,0)" xlink:href="#U"/><use transform="matrix(0.05,0,0,0.05,47.95,0)" xlink:href="#aq"/></g><path d="M85-194c31 0 48 13 60 33l-1-100h32l1 261h-30c-2-10 0-23-3-31C134-8 116 4 85 4 32 4 16-35 15-94c0-66 23-100 70-100zm9 24c-40 0-46 34-46 75 0 40 6 74 45 74 42 0 51-32 51-76 0-42-9-74-50-73" id="ar"/><g id="p"><use transform="matrix(0.05,0,0,0.05,0,0)" xlink:href="#al"/><use transform="matrix(0.05,0,0,0.05,5.95,0)" xlink:href="#ar"/><use transform="matrix(0.05,0,0,0.05,15.949999999999998,0)" xlink:href="#ao"/><use transform="matrix(0.05,0,0,0.05,21.9,0)" xlink:href="#T"/><use transform="matrix(0.05,0,0,0.05,31.899999999999995,0)" xlink:href="#aj"/><use transform="matrix(0.05,0,0,0.05,41.9,0)" xlink:href="#af"/><use transform="matrix(0.05,0,0,0.05,51.900000000000006,0)" xlink:href="#X"/><use transform="matrix(0.05,0,0,0.05,60.900000000000006,0)" xlink:href="#S"/><use transform="matrix(0.05,0,0,0.05,64.85,0)" xlink:href="#V"/></g><g id="q"><use transform="matrix(0.05,0,0,0.05,0,0)" xlink:href="#af"/><use transform="matrix(0.05,0,0,0.05,10,0)" xlink:href="#Y"/></g><path d="M206 0h-36l-40-164L89 0H53L-1-190h32L70-26l43-164h34l41 164 42-164h31" id="as"/><g id="r"><use transform="matrix(0.05,0,0,0.05,0,0)" xlink:href="#al"/><use transform="matrix(0.05,0,0,0.05,5.95,0)" xlink:href="#as"/><use transform="matrix(0.05,0,0,0.05,18.900000000000002,0)" xlink:href="#ao"/><use transform="matrix(0.05,0,0,0.05,24.85,0)" xlink:href="#S"/><use transform="matrix(0.05,0,0,0.05,28.8,0)" xlink:href="#V"/><use transform="matrix(0.05,0,0,0.05,33.8,0)" xlink:href="#ak"/><use transform="matrix(0.05,0,0,0.05,43.8,0)" xlink:href="#ar"/><use transform="matrix(0.05,0,0,0.05,53.79999999999999,0)" xlink:href="#Y"/><use transform="matrix(0.05,0,0,0.05,59.75,0)" xlink:href="#ad"/><use transform="matrix(0.05,0,0,0.05,69.75,0)" xlink:href="#as"/></g><g id="s"><use transform="matrix(0.05,0,0,0.05,0,0)" xlink:href="#al"/><use transform="matrix(0.05,0,0,0.05,5.95,0)" xlink:href="#ah"/><use transform="matrix(0.05,0,0,0.05,15.949999999999998,0)" xlink:href="#ao"/><use transform="matrix(0.05,0,0,0.05,21.9,0)" xlink:href="#ad"/><use transform="matrix(0.05,0,0,0.05,31.899999999999995,0)" xlink:href="#R"/><use transform="matrix(0.05,0,0,0.05,35.85,0)" xlink:href="#ad"/><use transform="matrix(0.05,0,0,0.05,45.85,0)" xlink:href="#U"/><use transform="matrix(0.05,0,0,0.05,55.85,0)" xlink:href="#ae"/><use transform="matrix(0.05,0,0,0.05,64.85,0)" xlink:href="#T"/></g><path d="M145-31C134-9 116 4 85 4 32 4 16-35 15-94c0-59 17-99 70-100 32-1 48 14 60 33 0-11-1-24 2-32h30l-1 268h-32zM93-21c41 0 51-33 51-76s-8-73-50-73c-40 0-46 35-46 75s5 74 45 74" id="at"/><g id="t"><use transform="matrix(0.05,0,0,0.05,0,0)" xlink:href="#al"/><use transform="matrix(0.05,0,0,0.05,5.95,0)" xlink:href="#at"/><use transform="matrix(0.05,0,0,0.05,15.949999999999998,0)" xlink:href="#ao"/><use transform="matrix(0.05,0,0,0.05,21.9,0)" xlink:href="#at"/><use transform="matrix(0.05,0,0,0.05,31.899999999999995,0)" xlink:href="#ag"/><use transform="matrix(0.05,0,0,0.05,41.9,0)" xlink:href="#S"/><use transform="matrix(0.05,0,0,0.05,45.85,0)" xlink:href="#V"/></g><g id="u"><use transform="matrix(0.05,0,0,0.05,0,0)" xlink:href="#ad"/><use transform="matrix(0.05,0,0,0.05,10,0)" xlink:href="#ae"/><use transform="matrix(0.05,0,0,0.05,19,0)" xlink:href="#V"/><use transform="matrix(0.05,0,0,0.05,24,0)" xlink:href="#S"/><use transform="matrix(0.05,0,0,0.05,27.950000000000003,0)" xlink:href="#af"/><use transform="matrix(0.05,0,0,0.05,37.95,0)" xlink:href="#U"/></g><g id="v"><use transform="matrix(0.05,0,0,0.05,0,0)" xlink:href="#ah"/><use transform="matrix(0.05,0,0,0.05,10,0)" xlink:href="#ad"/><use transform="matrix(0.05,0,0,0.05,20,0)" xlink:href="#R"/><use transform="matrix(0.05,0,0,0.05,23.95,0)" xlink:href="#ad"/><use transform="matrix(0.05,0,0,0.05,33.95,0)" xlink:href="#U"/><use transform="matrix(0.05,0,0,0.05,43.95,0)" xlink:href="#ae"/><use transform="matrix(0.05,0,0,0.05,52.95,0)" xlink:href="#T"/><use transform="matrix(0.05,0,0,0.05,62.95,0)" xlink:href="#al"/><use transform="matrix(0.05,0,0,0.05,68.9,0)" xlink:href="#ad"/><use transform="matrix(0.05,0,0,0.05,78.9,0)" xlink:href="#ag"/><use transform="matrix(0.05,0,0,0.05,88.9,0)" xlink:href="#V"/><use transform="matrix(0.05,0,0,0.05,93.9,0)" xlink:href="#ak"/><use transform="matrix(0.05,0,0,0.05,103.9,0)" xlink:href="#T"/><use transform="matrix(0.05,0,0,0.05,113.9,0)" xlink:href="#U"/><use transform="matrix(0.05,0,0,0.05,123.9,0)" xlink:href="#V"/><use transform="matrix(0.05,0,0,0.05,128.9,0)" xlink:href="#S"/><use transform="matrix(0.05,0,0,0.05,132.85,0)" xlink:href="#ae"/><use transform="matrix(0.05,0,0,0.05,141.85,0)" xlink:href="#ad"/><use transform="matrix(0.05,0,0,0.05,151.85,0)" xlink:href="#V"/><use transform="matrix(0.05,0,0,0.05,156.85,0)" xlink:href="#S"/><use transform="matrix(0.05,0,0,0.05,160.79999999999998,0)" xlink:href="#af"/><use transform="matrix(0.05,0,0,0.05,170.79999999999998,0)" xlink:href="#U"/><use transform="matrix(0.05,0,0,0.05,180.79999999999998,0)" xlink:href="#am"/><use transform="matrix(0.05,0,0,0.05,190.79999999999998,0)" xlink:href="#V"/><use transform="matrix(0.05,0,0,0.05,195.79999999999998,0)" xlink:href="#af"/><use transform="matrix(0.05,0,0,0.05,205.79999999999995,0)" xlink:href="#ap"/><use transform="matrix(0.05,0,0,0.05,214.79999999999995,0)" xlink:href="#T"/><use transform="matrix(0.05,0,0,0.05,224.79999999999995,0)" xlink:href="#U"/><use transform="matrix(0.05,0,0,0.05,234.79999999999995,0)" xlink:href="#ao"/></g><g id="w"><use transform="matrix(0.05,0,0,0.05,0,0)" xlink:href="#ah"/><use transform="matrix(0.05,0,0,0.05,10,0)" xlink:href="#ad"/><use transform="matrix(0.05,0,0,0.05,20,0)" xlink:href="#R"/><use transform="matrix(0.05,0,0,0.05,23.95,0)" xlink:href="#ad"/><use transform="matrix(0.05,0,0,0.05,33.95,0)" xlink:href="#U"/><use transform="matrix(0.05,0,0,0.05,43.95,0)" xlink:href="#ae"/><use transform="matrix(0.05,0,0,0.05,52.95,0)" xlink:href="#T"/></g><g id="x"><use transform="matrix(0.05,0,0,0.05,0,0)" xlink:href="#ad"/><use transform="matrix(0.05,0,0,0.05,10,0)" xlink:href="#ac"/><use transform="matrix(0.05,0,0,0.05,24.950000000000003,0)" xlink:href="#af"/><use transform="matrix(0.05,0,0,0.05,34.95,0)" xlink:href="#ag"/><use transform="matrix(0.05,0,0,0.05,44.95,0)" xlink:href="#U"/><use transform="matrix(0.05,0,0,0.05,54.95,0)" xlink:href="#V"/></g><g id="y"><use transform="matrix(0.05,0,0,0.05,0,0)" xlink:href="#ar"/><use transform="matrix(0.05,0,0,0.05,10,0)" xlink:href="#S"/><use transform="matrix(0.05,0,0,0.05,13.949999999999998,0)" xlink:href="#X"/><use transform="matrix(0.05,0,0,0.05,22.95,0)" xlink:href="#aj"/><use transform="matrix(0.05,0,0,0.05,32.95,0)" xlink:href="#R"/><use transform="matrix(0.05,0,0,0.05,36.900000000000006,0)" xlink:href="#ad"/><use transform="matrix(0.05,0,0,0.05,46.900000000000006,0)" xlink:href="#ai"/></g><g id="z"><use transform="matrix(0.05,0,0,0.05,0,0)" xlink:href="#ah"/><use transform="matrix(0.05,0,0,0.05,10,0)" xlink:href="#ad"/><use transform="matrix(0.05,0,0,0.05,20,0)" xlink:href="#R"/><use transform="matrix(0.05,0,0,0.05,23.95,0)" xlink:href="#ad"/><use transform="matrix(0.05,0,0,0.05,33.95,0)" xlink:href="#U"/><use transform="matrix(0.05,0,0,0.05,43.95,0)" xlink:href="#ae"/><use transform="matrix(0.05,0,0,0.05,52.95,0)" xlink:href="#T"/></g><g id="A"><use transform="matrix(0.05,0,0,0.05,0,0)" xlink:href="#V"/><use transform="matrix(0.05,0,0,0.05,5,0)" xlink:href="#af"/></g><g id="B"><use transform="matrix(0.05,0,0,0.05,0,0)" xlink:href="#ag"/><use transform="matrix(0.05,0,0,0.05,10,0)" xlink:href="#X"/><use transform="matrix(0.05,0,0,0.05,19,0)" xlink:href="#T"/><use transform="matrix(0.05,0,0,0.05,29,0)" xlink:href="#Y"/></g><path d="M205 0l-28-72H64L36 0H1l101-248h38L239 0h-34zm-38-99l-47-123c-12 45-31 82-46 123h93" id="au"/><g id="C"><use transform="matrix(0.05,0,0,0.05,0,0)" xlink:href="#au"/><use transform="matrix(0.05,0,0,0.05,12,0)" xlink:href="#R"/><use transform="matrix(0.05,0,0,0.05,15.949999999999998,0)" xlink:href="#V"/><use transform="matrix(0.05,0,0,0.05,20.95,0)" xlink:href="#T"/><use transform="matrix(0.05,0,0,0.05,30.950000000000003,0)" xlink:href="#Y"/><use transform="matrix(0.05,0,0,0.05,36.9,0)" xlink:href="#U"/><use transform="matrix(0.05,0,0,0.05,46.9,0)" xlink:href="#ad"/><use transform="matrix(0.05,0,0,0.05,56.900000000000006,0)" xlink:href="#V"/><use transform="matrix(0.05,0,0,0.05,61.900000000000006,0)" xlink:href="#S"/><use transform="matrix(0.05,0,0,0.05,65.85,0)" xlink:href="#aa"/><use transform="matrix(0.05,0,0,0.05,74.85,0)" xlink:href="#T"/></g><g id="D"><use transform="matrix(0.05,0,0,0.05,0,0)" xlink:href="#ad"/><use transform="matrix(0.05,0,0,0.05,10,0)" xlink:href="#ae"/><use transform="matrix(0.05,0,0,0.05,19,0)" xlink:href="#V"/><use transform="matrix(0.05,0,0,0.05,24,0)" xlink:href="#S"/><use transform="matrix(0.05,0,0,0.05,27.950000000000003,0)" xlink:href="#af"/><use transform="matrix(0.05,0,0,0.05,37.95,0)" xlink:href="#U"/></g><path d="M18-150v-26h174v26H18zm0 90v-26h174v26H18" id="av"/><g id="E"><use transform="matrix(0.05,0,0,0.05,0,0)" xlink:href="#av"/><use transform="matrix(0.05,0,0,0.05,10.5,0)" xlink:href="#av"/></g><use transform="matrix(0.05,0,0,0.05,0,0)" xlink:href="#ar" id="F"/><g id="G"><use transform="matrix(0.05,0,0,0.05,0,0)" xlink:href="#af"/><use transform="matrix(0.05,0,0,0.05,10,0)" xlink:href="#Y"/></g><use transform="matrix(0.05,0,0,0.05,0,0)" xlink:href="#as" id="H"/><use transform="matrix(0.05,0,0,0.05,0,0)" xlink:href="#ah" id="I"/><g id="J"><use transform="matrix(0.05,0,0,0.05,0,0)" xlink:href="#ad"/><use transform="matrix(0.05,0,0,0.05,10,0)" xlink:href="#X"/><use transform="matrix(0.05,0,0,0.05,19,0)" xlink:href="#ap"/></g><g id="K"><use transform="matrix(0.05,0,0,0.05,0,0)" xlink:href="#ad"/><use transform="matrix(0.05,0,0,0.05,10,0)" xlink:href="#ac"/><use transform="matrix(0.05,0,0,0.05,24.950000000000003,0)" xlink:href="#af"/><use transform="matrix(0.05,0,0,0.05,34.95,0)" xlink:href="#ag"/><use transform="matrix(0.05,0,0,0.05,44.95,0)" xlink:href="#U"/><use transform="matrix(0.05,0,0,0.05,54.95,0)" xlink:href="#V"/></g><path d="M0 4l72-265h28L28 4H0" id="aw"/><g id="L"><use transform="matrix(0.05,0,0,0.05,0,0)" xlink:href="#ar"/><use transform="matrix(0.05,0,0,0.05,10,0)" xlink:href="#T"/><use transform="matrix(0.05,0,0,0.05,20,0)" xlink:href="#aj"/><use transform="matrix(0.05,0,0,0.05,30,0)" xlink:href="#af"/><use transform="matrix(0.05,0,0,0.05,40,0)" xlink:href="#X"/><use transform="matrix(0.05,0,0,0.05,49,0)" xlink:href="#S"/><use transform="matrix(0.05,0,0,0.05,52.95,0)" xlink:href="#V"/><use transform="matrix(0.05,0,0,0.05,57.95,0)" xlink:href="#aw"/><use transform="matrix(0.05,0,0,0.05,62.95,0)" xlink:href="#as"/><use transform="matrix(0.05,0,0,0.05,75.9,0)" xlink:href="#S"/><use transform="matrix(0.05,0,0,0.05,79.85000000000001,0)" xlink:href="#V"/><use transform="matrix(0.05,0,0,0.05,84.85000000000001,0)" xlink:href="#ak"/><use transform="matrix(0.05,0,0,0.05,94.85000000000001,0)" xlink:href="#ar"/><use transform="matrix(0.05,0,0,0.05,104.85000000000001,0)" xlink:href="#Y"/><use transform="matrix(0.05,0,0,0.05,110.80000000000001,0)" xlink:href="#ad"/><use transform="matrix(0.05,0,0,0.05,120.80000000000001,0)" xlink:href="#as"/><use transform="matrix(0.05,0,0,0.05,133.75,0)" xlink:href="#al"/><use transform="matrix(0.05,0,0,0.05,139.7,0)" xlink:href="#ad"/><use transform="matrix(0.05,0,0,0.05,149.7,0)" xlink:href="#ag"/><use transform="matrix(0.05,0,0,0.05,159.7,0)" xlink:href="#V"/><use transform="matrix(0.05,0,0,0.05,164.7,0)" xlink:href="#ak"/><use transform="matrix(0.05,0,0,0.05,174.7,0)" xlink:href="#T"/><use transform="matrix(0.05,0,0,0.05,184.7,0)" xlink:href="#U"/><use transform="matrix(0.05,0,0,0.05,194.7,0)" xlink:href="#V"/><use transform="matrix(0.05,0,0,0.05,199.7,0)" xlink:href="#S"/><use transform="matrix(0.05,0,0,0.05,203.64999999999998,0)" xlink:href="#ae"/><use transform="matrix(0.05,0,0,0.05,212.64999999999998,0)" xlink:href="#ad"/><use transform="matrix(0.05,0,0,0.05,222.64999999999998,0)" xlink:href="#V"/><use transform="matrix(0.05,0,0,0.05,227.64999999999998,0)" xlink:href="#S"/><use transform="matrix(0.05,0,0,0.05,231.59999999999997,0)" xlink:href="#af"/><use transform="matrix(0.05,0,0,0.05,241.59999999999997,0)" xlink:href="#U"/><use transform="matrix(0.05,0,0,0.05,251.59999999999997,0)" xlink:href="#am"/><use transform="matrix(0.05,0,0,0.05,261.59999999999997,0)" xlink:href="#V"/><use transform="matrix(0.05,0,0,0.05,266.59999999999997,0)" xlink:href="#af"/><use transform="matrix(0.05,0,0,0.05,276.59999999999997,0)" xlink:href="#ap"/><use transform="matrix(0.05,0,0,0.05,285.59999999999997,0)" xlink:href="#T"/><use transform="matrix(0.05,0,0,0.05,295.59999999999997,0)" xlink:href="#U"/><use transform="matrix(0.05,0,0,0.05,305.59999999999997,0)" xlink:href="#an"/></g><g id="M"><use transform="matrix(0.05,0,0,0.05,0,0)" xlink:href="#ad"/><use transform="matrix(0.05,0,0,0.05,10,0)" xlink:href="#ac"/><use transform="matrix(0.05,0,0,0.05,24.950000000000003,0)" xlink:href="#af"/><use transform="matrix(0.05,0,0,0.05,34.95,0)" xlink:href="#ag"/><use transform="matrix(0.05,0,0,0.05,44.95,0)" xlink:href="#U"/><use transform="matrix(0.05,0,0,0.05,54.95,0)" xlink:href="#V"/><use transform="matrix(0.05,0,0,0.05,59.95,0)" xlink:href="#ao"/></g><g id="N"><use transform="matrix(0.05,0,0,0.05,0,0)" xlink:href="#U"/><use transform="matrix(0.05,0,0,0.05,10,0)" xlink:href="#T"/><use transform="matrix(0.05,0,0,0.05,20,0)" xlink:href="#as"/></g><g id="O"><use transform="matrix(0.05,0,0,0.05,0,0)" xlink:href="#U"/><use transform="matrix(0.05,0,0,0.05,10,0)" xlink:href="#T"/><use transform="matrix(0.05,0,0,0.05,20,0)" xlink:href="#as"/></g><g id="P"><use transform="matrix(0.05,0,0,0.05,0,0)" xlink:href="#ae"/><use transform="matrix(0.05,0,0,0.05,9,0)" xlink:href="#ag"/><use transform="matrix(0.05,0,0,0.05,19,0)" xlink:href="#Y"/><use transform="matrix(0.05,0,0,0.05,24.95,0)" xlink:href="#Y"/><use transform="matrix(0.05,0,0,0.05,30.899999999999995,0)" xlink:href="#T"/><use transform="matrix(0.05,0,0,0.05,40.9,0)" xlink:href="#U"/><use transform="matrix(0.05,0,0,0.05,50.9,0)" xlink:href="#V"/></g></defs></g></svg>